<?xml version="1.0" encoding="UTF-8" standalone="no"?>
<!-- Created with Inkscape (http://www.inkscape.org/) -->

<svg
   version="1.1"
   id="svg1"
   width="139.70538"
   height="817.04657"
   viewBox="0 0 139.70538 817.04657"
   sodipodi:docname="Vector_20180502_007.eps"
   inkscape:export-filename="../Downloads/Important/CLB ANM/logo/learning webproject/assets/decors/wrench.svg"
   inkscape:export-xdpi="96"
   inkscape:export-ydpi="96"
   inkscape:version="0.0"
   xmlns:inkscape="http://www.inkscape.org/namespaces/inkscape"
   xmlns:sodipodi="http://sodipodi.sourceforge.net/DTD/sodipodi-0.dtd"
   xmlns="http://www.w3.org/2000/svg"
   xmlns:svg="http://www.w3.org/2000/svg">
  <defs
     id="defs1" />
  <sodipodi:namedview
     id="namedview1"
     pagecolor="#505050"
     bordercolor="#eeeeee"
     borderopacity="1"
     inkscape:showpageshadow="0"
     inkscape:pageopacity="0"
     inkscape:pagecheckerboard="0"
     inkscape:deskcolor="#505050"
     inkscape:zoom="0.23137729"
     inkscape:cx="2502.4063"
     inkscape:cy="3094.5128"
     inkscape:window-width="1894"
     inkscape:window-height="1007"
     inkscape:window-x="0"
     inkscape:window-y="0"
     inkscape:window-maximized="1"
     inkscape:current-layer="g1">
    <inkscape:page
       x="0"
       y="0"
       width="139.70538"
       height="817.04657"
       id="page2"
       margin="0"
       bleed="0" />
  </sodipodi:namedview>
  <g
     id="g1"
     inkscape:groupmode="layer"
     inkscape:label="1"
     transform="translate(-927.00533,-422.52005)">
    <g
       id="group-R5"
       style="display:inline;fill:#be3d2a;fill-opacity:1">
      <path
         id="path76"
         d="m 4128.83,14094.3 c -113.47,469.9 -146.96,848.3 -86.81,1051.6 53.33,180.3 92.82,380 -16.04,446.2 h -258.82 v 2560.3 h -49.26 v 212.2 h -36.75 v 210.4 l -66.76,80.2 -66.96,-80.2 v -210.4 h -36.76 v -212.2 h -49.25 V 15592.1 H 3202.6 c -108.87,-66.2 -69.37,-265.9 -16.04,-446.2 60.14,-203.3 26.86,-581.7 -86.81,-1051.6 -113.68,-469.7 -160.39,-987.4 -60.15,-1269.9 100.24,-282.5 574.79,-279.6 574.79,-279.6 0,0 474.34,-2.9 574.58,279.6 100.24,282.5 53.53,800.2 -60.14,1269.9"
         style="display:none;fill:#be3d2a;fill-opacity:1;fill-rule:nonzero;stroke:none"
         transform="matrix(0.13333333,0,0,-0.13333333,0,4081.8933)" />
      <path
         id="path77"
         d="m 8588.57,18232.4 c -358.4,313.7 -810.32,405.2 -810.32,405.2 h -773.11 c 0,0 -177.77,-206.7 -347.28,-219.1 -169.5,-12.4 -305.93,37.2 -372.08,140.6 v 46.4 h -450.64 v -928 h 450.64 v 46.4 c 140.56,190.2 384.55,190.2 554.18,119.9 193.81,-80.2 239.6,-322.5 239.6,-322.5 h 63.27 V 15592.1 H 6964.2 c -108.86,-66.2 -69.37,-265.9 -16.04,-446.2 60.14,-203.3 26.86,-581.7 -86.81,-1051.6 -113.68,-469.7 -160.39,-987.4 -60.15,-1269.9 100.24,-282.5 574.79,-279.6 574.79,-279.6 0,0 474.34,-2.9 574.58,279.6 100.24,282.5 53.53,800.2 -60.14,1269.9 -113.47,469.9 -146.95,848.3 -86.81,1051.6 53.33,180.3 92.82,380 -16.04,446.2 h -178.63 v 1929.2 h 61.81 c 0,0 35.52,263.9 208.02,363.9 151.89,88 416.26,70.2 627.11,-74.5 210.85,-144.7 446.5,-417.5 446.5,-417.5 0,0 41.31,23.2 165.34,110 -41.34,86.8 -182.06,425.4 -529.16,729.2"
         style="display:none;fill:#be3d2a;fill-opacity:1;fill-rule:nonzero;stroke:none"
         transform="matrix(0.13333333,0,0,-0.13333333,0,4081.8933)" />
      <path
         id="path78"
         d="m 19426.4,16177.2 -347.8,-1136.5 c 1,338.5 14.6,684.7 50.6,985 33,276 58.7,474.8 75.9,621 l 211.3,-375.7 c 16,-28.3 19.6,-62.5 10,-93.8 z m -596.3,1007 c 51.5,0 93,-44.5 93,-99.3 0,-54.8 -41.5,-99.3 -93,-99.3 -51.3,0 -92.9,44.5 -92.9,99.3 0,54.8 41.6,99.3 92.9,99.3 z m -424.3,-585.3 c -51.3,0 -93,44.5 -93,99.3 0,54.8 41.7,99.3 93,99.3 51.4,0 92.9,-44.5 92.9,-99.3 0,-54.8 -41.5,-99.3 -92.9,-99.3 z m -121.9,967.2 c 0,54.8 41.6,99.3 92.9,99.3 51.5,0 93,-44.5 93,-99.3 0,-54.8 -41.5,-99.3 -93,-99.3 -51.3,0 -92.9,44.5 -92.9,99.3 z m 1519.3,-405.3 c 51.3,0 93,-44.5 93,-99.3 0,-54.8 -41.7,-99.3 -93,-99.3 -51.3,0 -93,44.5 -93,99.3 0,54.8 41.7,99.3 93,99.3 z m 16.5,-1019.8 c 82.3,413.6 193.6,786.7 198,910.1 4.5,123.5 -75,220.6 -225.7,410 -150.4,189.2 -134.4,170.8 -184,504.6 -49.8,333.9 -183,483.4 -218.8,535.5 -25.2,36.5 -92.3,61.9 -129.9,73.7 -13.4,4 -27,-6.4 -27.5,-21.3 l -37.7,-917.6 c -0.9,-21.7 -9.6,-42.3 -24.3,-57.4 l -215.9,-222.3 c -46.6,32.5 -89.8,58.7 -118.9,75.6 -25.7,14.9 -46.7,37.1 -60.3,64.5 l -70.8,141.4 c -11.3,22.6 -15.1,48.8 -11.1,73.9 l 145.6,896.5 c 3.6,21.9 -11,42.1 -31.7,44.3 -41.3,4.4 -107.6,6.4 -153.9,-17.7 -71.9,-37.3 -207.3,-218 -361,-527.3 -153.9,-309.5 -190.6,-317.6 -183,-735.4 7.4,-417.6 32.3,-1018.1 99.5,-1390.3 67.3,-372.2 249.3,-632.4 283.9,-1100 29.4,-400.5 12.5,-1138.3 7,-1341.4 -0.8,-34.4 9.3,-68.1 28.8,-95.5 l 54.7,-76.7 h 0.1 v -178.3 c 0,-29.3 23.8,-53.2 53.2,-53.2 h 72.9 V 12804 h -120.5 c -29.3,0 -53.2,-23.8 -53.2,-53.2 v -152.9 c 0,-29.3 23.9,-53.1 53.2,-53.1 h 445.7 c 29.3,0 53.1,23.8 53.1,53.1 v 152.9 c 0,29.4 -23.8,53.2 -53.1,53.2 h -120.5 v 332.7 h 72.9 c 29.4,0 53.2,23.9 53.2,53.2 v 178.3 l 67.6,82.4 c 21,26 31.5,59.6 28.8,93.8 -5.5,69.5 -15.3,203 -25.3,378.2 43.4,111.1 100.5,254.7 174.7,437.9 305.6,-581.1 329.2,-1452.5 453.8,-1644.1 125,-191.6 191.3,-130.2 191.3,-130.2 0,0 -325.5,1378.9 -345,2127.7 -19.6,749 152.2,1013.7 234.1,1427.1"
         style="display:none;fill:#be3d2a;fill-opacity:1;fill-rule:nonzero;stroke:none"
         transform="matrix(0.13333333,0,0,-0.13333333,0,4081.8933)" />
      <path
         id="path79"
         d="m 15116.8,12890.3 c -145.6,0 -263.9,118.3 -263.9,263.9 0,145.8 118.3,264.2 263.9,264.2 145.6,0 264,-118.4 264,-264.2 0,-145.6 -118.4,-263.9 -264,-263.9 z m 603.7,348.4 c -15,342.7 -229.4,1252.3 -267.9,2099.2 -26.7,585.7 75.1,1050.9 97.4,1145.1 2.8,11.1 -0.7,22.6 -8.5,30.4 l -21.6,21.7 h -403.1 -403.1 l -21.6,-21.7 c -7.8,-7.8 -11.3,-19.3 -8.5,-30.4 22.3,-94.2 124.1,-559.4 97.4,-1145.1 -38.5,-846.9 -252.9,-1756.5 -267.9,-2099.2 l 0.3,0.3 c -4,-27.7 -6,-56 -6,-84.8 0,-336.5 272.7,-609.4 609.4,-609.4 336.7,0 609.4,272.9 609.4,609.4 0,28.8 -2,57.1 -6,84.8 l 0.3,-0.3"
         style="display:none;fill:#be3d2a;fill-opacity:1;fill-rule:nonzero;stroke:none"
         transform="matrix(0.13333333,0,0,-0.13333333,0,4081.8933)" />
      <path
         id="path80"
         d="m 15756,18291.3 c -112.5,97.9 -305.2,247.6 -399.9,255.9 -80.6,7.1 -118.4,-45.8 -118.4,-45.8 l 256.1,-561.3 -92.1,-164.3 -173.4,-63.8 -292.3,-107.1 -133.4,-49 -406.2,-149.3 -11.8,-54.5 c -3.7,-17.3 0.9,-35.3 12.7,-48.4 l 232.8,-261.9 164.5,-431.8 h 668.4 l 494.5,895.4 c 0,0 57.6,86.2 60.6,308 2.7,221.8 -149.8,380 -262.1,477.9"
         style="display:none;fill:#be3d2a;fill-opacity:1;fill-rule:nonzero;stroke:none"
         transform="matrix(0.13333333,0,0,-0.13333333,0,4081.8933)" />
      <path
         id="path81"
         d="m 14797.1,17625.2 202.9,74.4 163.5,60.2 -131.2,88.1 -220.2,515.3 c 0,0 -59.4,0 -129.9,-60.4 -30.2,-25.8 -80.6,-126.7 -98.1,-420.3 -9.7,-166.5 4.6,-270.2 18.9,-328.7 l 194.1,71.4"
         style="display:none;fill:#be3d2a;fill-opacity:1;fill-rule:nonzero;stroke:none"
         transform="matrix(0.13333333,0,0,-0.13333333,0,4081.8933)" />
      <path
         id="path82"
         d="m 11753.3,17159.7 c 6.7,0.7 11.2,0.2 11.2,0.2 0,0 -4,329.2 -64,641.9 -73.1,379.3 -255.8,746.1 -255.8,746.1 h -69.6 V 17997 c 98,-23.6 172.5,-141 172.5,-281.5 0,-140.8 -74.5,-258 -172.5,-281.5 v -8 c 168.5,-13.3 311.4,-119 378.2,-266.3"
         style="display:none;fill:#be3d2a;fill-opacity:1;fill-rule:nonzero;stroke:none"
         transform="matrix(0.13333333,0,0,-0.13333333,0,4081.8933)" />
      <path
         id="path83"
         d="m 12449.1,14280.2 c -93.4,805.3 -297.6,1243 -420.2,1610.6 -87.5,262.6 -103.6,462.7 -105.5,555.6 -0.9,35.7 -21,67.9 -52.7,83.8 l -28.5,14.2 -56.7,-16 -0.5,199 c 0,0 4.4,47.4 -13.1,69.3 -16,20.2 -66.8,29.7 -75.1,31.1 l -1,1.6 c 17.8,44.3 27.9,92.5 27.9,143.1 0,212.4 -172.7,385.1 -385.1,385.1 -12.3,0 -24.5,-0.7 -36.6,-1.8 v 78.2 c -98,23.5 -172.5,140.5 -172.5,281.5 0,140.7 74.5,257.9 172.5,281.5 v 550.9 h -69.5 c 0,0 -182.8,-366.5 -255.8,-746.1 -60,-312.7 -64,-641.9 -64,-641.9 0,0 54.6,6.5 65.4,-48.6 v -5.1 c -15.6,-41.7 -24.7,-86.6 -24.7,-133.7 0,-212.4 172.8,-385.2 385.2,-385.2 30.7,0 60.5,4.2 89.2,11.1 l 1.2,-1 v -43.3 -110.3 l 5.6,-14.5 -59.5,-16.8 V 16268 c 3.3,-4.2 6.5,-8.6 10.1,-13.5 26.3,-36.9 6.2,-96.9 -9.4,-131.9 l -0.7,-1.6 c -7.9,-18.5 -7.9,-39 -0.5,-57.9 l 0.5,-1.2 220.1,-550.4 c 233.5,-583.6 315.1,-1155.4 342.5,-1715.7 27,-560.2 -66.3,-976.4 -74,-1066 -7.7,-89.4 58.3,-163.4 241.1,-182.8 183,-19.3 272.4,89.4 303.4,171.1 31.3,81.7 134.3,756.8 40.9,1562.1"
         style="display:none;fill:#be3d2a;fill-opacity:1;fill-rule:nonzero;stroke:none"
         transform="matrix(0.13333333,0,0,-0.13333333,0,4081.8933)" />
      <path
         id="path84"
         d="m 11301.4,16122.6 c -15.7,35 -35.8,95 -9.4,131.9 3.5,4.9 6.8,9.3 10,13.5 v 144.5 l -59.5,16.8 5.6,14.5 v 82.6 c -152.2,30.6 -277,137.5 -332.8,279.2 -4,-2.8 -7.5,-5.6 -10.1,-8.9 -17.5,-21.9 -13,-69.3 -13,-69.3 l -0.5,-199 -56.7,16 -28.5,-14.2 c -31.8,-15.9 -51.8,-48.1 -52.8,-83.8 -1.8,-92.9 -17.9,-293 -105.5,-555.6 -122.5,-367.6 -326.8,-805.3 -420.1,-1610.6 -93.4,-805.3 9.5,-1480.4 40.8,-1562.1 31.1,-81.7 120.5,-190.4 303.5,-171.1 182.7,19.4 248.8,93.4 241.1,182.8 -7.7,89.6 -101.1,505.8 -74,1066 27.3,560.3 109,1132.1 342.4,1715.7 l 220.1,550.4 0.5,1.2 c 7.5,18.9 7.5,39.4 -0.5,57.9 l -0.6,1.6"
         style="display:none;fill:#be3d2a;fill-opacity:1;fill-rule:nonzero;stroke:none"
         transform="matrix(0.13333333,0,0,-0.13333333,0,4081.8933)" />
      <path
         id="path85"
         d="m 4008.74,25756.2 c -2.4,31.7 -28.81,56.1 -60.47,56.1 h -86.66 v -2597.4 -5.9 c 53.05,-55 85.79,-129.9 85.79,-212 0,-82.1 -32.74,-156.9 -85.79,-211.9 v -6.2 -1461.4 h 316.74 c 83.17,0 150.4,67.2 150.4,150.4 v 288.1 l -320.01,4000.2"
         style="display:none;fill:#be3d2a;fill-opacity:1;fill-rule:nonzero;stroke:none"
         transform="matrix(0.13333333,0,0,-0.13333333,0,4081.8933)" />
      <path
         id="path86"
         d="m 3521.3,23282.3 v -4.8 c 37.1,15.9 77.93,24.9 120.71,24.9 42.78,0 83.6,-9 120.71,-24.9 v 4.6 c 12.01,-5 23.8,-10.9 35.15,-17.5 6.99,-3.9 13.54,-8.3 20.08,-12.6 v 3424.9 l -33.04,-3.6 v 520.1 l -285.8,518.3 v -1038.4 l -33.26,3.6 v -3425.1 c 6.55,4.8 13.53,8.9 20.52,13.1 11.35,6.5 22.92,12.4 34.93,17.4"
         style="display:none;fill:#be3d2a;fill-opacity:1;fill-rule:nonzero;stroke:none"
         transform="matrix(0.13333333,0,0,-0.13333333,0,4081.8933)" />
      <path
         id="path87"
         d="m 3224.2,21583.6 c 0,-31.5 -25.32,-57 -56.75,-57 h -46.72 c -31.43,0 -56.97,25.5 -56.97,57 v 752.4 c 0,31.5 25.54,57 56.97,57 h 46.72 c 31.43,0 56.75,-25.5 56.75,-57 z m 197.99,1625.2 v 2603.3 h -61.34 c -30.78,0 -56.53,-22.7 -60.25,-53.3 l -354.5,-2688.2 c -30.78,-250.2 -46.28,-501.9 -46.28,-754 v -848.7 c 0,-83.2 67.23,-150.4 150.4,-150.4 h 371.97 v 1461.9 5.9 c -53.04,55 -85.57,129.6 -85.57,211.7 0,82.1 32.53,156.7 85.57,211.8"
         style="display:none;fill:#be3d2a;fill-opacity:1;fill-rule:nonzero;stroke:none"
         transform="matrix(0.13333333,0,0,-0.13333333,0,4081.8933)" />
      <path
         id="path88"
         d="m 3642.01,22691.6 c -42.78,0 -83.61,9 -120.71,24.9 -19.65,8.5 -38.21,19 -55.45,31.2 v -5.4 -1424.8 h 352.1 v 1424.5 5.7 c -17.24,-12.4 -35.8,-22.7 -55.23,-31.2 -37.11,-15.9 -77.93,-24.9 -120.71,-24.9"
         style="display:none;fill:#be3d2a;fill-opacity:1;fill-rule:nonzero;stroke:none"
         transform="matrix(0.13333333,0,0,-0.13333333,0,4081.8933)" />
      <path
         id="path89"
         d="m 3881.91,22997 c 0,34.3 -7.2,67 -20.3,96.7 -10.91,24.5 -25.54,46.7 -43.66,66.2 -4.14,4.5 -8.73,9.1 -13.31,13.3 -12.66,12 -26.63,22.4 -41.92,31.2 -35.58,20.7 -76.83,32.5 -120.71,32.5 -43.88,0 -85.13,-11.8 -120.71,-32.5 -15.29,-9 -29.48,-19.5 -42.35,-31.5 -4.59,-4.3 -8.95,-8.7 -13.1,-13.3 -18.12,-19.4 -32.96,-41.9 -43.66,-66.5 -12.87,-29.5 -20.08,-62 -20.08,-96.1 0,-34.1 7.21,-66.6 20.08,-96 10.7,-24.7 25.54,-47.2 43.66,-66.6 15.94,-17.5 34.71,-32.8 55.45,-44.8 35.58,-20.7 76.83,-32.5 120.71,-32.5 43.88,0 85.13,11.8 120.71,32.5 20.74,12 39.3,27.1 55.23,44.6 18.12,19.4 32.75,41.7 43.66,66.1 13.1,29.7 20.3,62.4 20.3,96.7"
         style="display:none;fill:#be3d2a;fill-opacity:1;fill-rule:nonzero;stroke:none"
         transform="matrix(0.13333333,0,0,-0.13333333,0,4081.8933)" />
      <path
         id="path90"
         d="m 7981.72,23241.7 c -46.03,76 -161.48,249.1 -161.48,460.6 0,186.3 89.53,336.6 142.34,431.7 22.53,40.5 19.33,88.4 -8.38,126.3 l -101.21,138.6 h -209.2 V 26898 l -137.32,526.5 c -4.68,12.5 -16.66,20.8 -30.04,20.8 -13.37,0 -25.34,-8.3 -30.03,-20.8 L 7309.08,26898 v -2499.1 h -209.2 l -101.21,-138.6 c -27.71,-37.9 -30.9,-85.8 -8.38,-126.3 52.8,-95.1 142.34,-245.4 142.34,-431.7 0,-211.5 -115.45,-384.6 -161.47,-460.6 -12.32,-20.3 -18.62,-42.9 -18.62,-65.9 v -1570.4 c 0,-111.4 83.49,-209.4 204.94,-240.5 l 55.4,-14.3 c 172.12,-44.2 354.99,-44.2 527.11,0 l 55.39,14.3 c 121.45,31.1 204.95,129.1 204.95,240.5 v 1570.4 c 0,23 -6.3,45.6 -18.61,65.9"
         style="display:inline;fill:#be3d2a;fill-opacity:1;fill-rule:nonzero;stroke:none"
         transform="matrix(0.13333333,0,0,-0.13333333,0,4081.8933)" />
      <path
         id="path91"
         d="m 11720,21784.4 c 0,-170.7 -138.4,-309.1 -309.3,-309.1 -170.7,0 -309.1,138.4 -309.1,309.1 0,170.9 138.4,309.3 309.1,309.3 170.9,0 309.3,-138.4 309.3,-309.3 z m 481.8,4824.9 c 24.6,110 36.9,252.8 -158.9,452.5 -186.3,190.2 -468.4,417.2 -628.9,400.1 -12.2,-1.3 -19.5,-14.5 -14.7,-25.8 l 240.2,-573.6 c 15.2,-36.1 11.5,-77.3 -9.8,-110.1 l -36.5,-56.4 c -12.5,-19.4 -30.5,-34.7 -51.6,-44 l -1045.1,-461.1 c -34.7,-15.3 -45.7,-59.3 -22.2,-89.1 l 149.5,-190 c 0,0 269.1,-407.7 313.9,-509.7 44.9,-101.9 89.7,-187.5 89.7,-497.5 0,-292.9 -74.9,-2820.3 -83.2,-3095.7 -0.4,-8.1 -0.7,-16.2 -0.7,-24.5 0,-257.4 209.6,-466.9 467.2,-466.9 257.6,0 467.1,209.5 467.1,466.9 0,8.1 -0.2,16.2 -0.6,24 -0.3,3.9 -0.6,7.8 -0.9,11.7 -0.3,3.1 -0.5,6.2 -0.8,9.2 l -0.1,1.4 c 0,1.9 -0.2,3.9 -0.6,5.7 -0.5,4.8 -0.9,9.6 -1.8,14.4 -0.6,4.1 -1.2,8.2 -2.1,12.3 -0.2,1.1 -0.3,2.3 -0.5,3.4 -42.8,474.1 -256.3,2849.8 -259.8,3025.9 -4.1,195.6 -101.9,326.2 126.4,770.8 228.4,444.4 440.3,835.8 464.8,946.1"
         style="display:none;fill:#be3d2a;fill-opacity:1;fill-rule:nonzero;stroke:none"
         transform="matrix(0.13333333,0,0,-0.13333333,0,4081.8933)" />
      <path
         id="path92"
         d="m 11103.8,26524.4 -250.2,666.6 c -3.9,10.9 -16.6,15.3 -26.8,9.9 -246.3,-131.7 -185.6,-668.7 -153.9,-866.9 l 430.9,190.4"
         style="display:none;fill:#be3d2a;fill-opacity:1;fill-rule:nonzero;stroke:none"
         transform="matrix(0.13333333,0,0,-0.13333333,0,4081.8933)" />
      <path
         id="path93"
         d="m 15534.1,21761.1 -138,-239.1 h -390.7 l -138,239.1 -57.2,99.3 195.2,338.1 h 390.7 l 195.2,-338.1 z m 174.6,4108 c 251.5,165.6 417.6,450.1 417.6,773.8 0,342.9 -186.7,642.4 -463.9,802.4 v -521 l -461.7,-266.6 -461.7,266.6 v 521 c -277.2,-160 -463.8,-459.5 -463.8,-802.4 0,-323.7 166.1,-608.2 417.6,-773.8 59.8,-39.3 96.2,-105.5 96.2,-176.9 V 22214 c -81.8,-95 -131.2,-218.5 -131.2,-353.6 0,-300 243,-542.9 542.9,-542.9 300,0 542.9,242.9 542.9,542.9 0,135.1 -49.3,258.6 -131.2,353.6 v 3478.2 c 0,71.4 36.5,137.6 96.3,176.9"
         style="display:none;fill:#be3d2a;fill-opacity:1;fill-rule:nonzero;stroke:none"
         transform="matrix(0.13333333,0,0,-0.13333333,0,4081.8933)" />
      <path
         id="path94"
         d="m 19053,23096.2 c -401.8,0 -728.6,-327 -728.6,-728.8 0,-401.8 326.8,-728.6 728.6,-728.6 402,0 728.5,326.8 728.5,728.6 0,401.8 -326.5,728.8 -728.5,728.8"
         style="display:none;fill:#be3d2a;fill-opacity:1;fill-rule:nonzero;stroke:none"
         transform="matrix(0.13333333,0,0,-0.13333333,0,4081.8933)" />
      <path
         id="path95"
         d="m 19053,21578.2 c -436,0 -789.3,353.4 -789.3,789.4 0,435.8 353.3,789.3 789.3,789.3 435.9,0 789.4,-353.5 789.4,-789.3 0,-436 -353.5,-789.4 -789.4,-789.4 z m 1110.3,5419.8 h -367.8 v -367.8 c 0,-8.4 6.7,-15.1 15.1,-15.1 h 18.8 c 8.4,0 15.2,6.7 15.2,15.1 V 23655.1 H 19129 c -40.7,0 -80.8,-9.2 -117.1,-26.9 l -844.8,-410.1 c -134.5,-65.3 -219.8,-201.6 -219.8,-351.1 v -1106.8 c 0,-210.7 167.2,-383.3 377.7,-390.2 l 1636.4,-52.4 c 86.4,-3 158.1,66.5 158.1,153 v 2031.5 c 0,84.3 -68.3,152.8 -152.8,153 h -23.9 v 3293.8 h 220.5 c 8.3,0 15.1,6.8 15.1,15.1 v 18.9 c 0,8.3 -6.8,15.1 -15.1,15.1"
         style="display:none;fill:#be3d2a;fill-opacity:1;fill-rule:nonzero;stroke:none"
         transform="matrix(0.13333333,0,0,-0.13333333,0,4081.8933)" />
      <path
         id="path96"
         d="m 4189.05,3882.8 c -100.42,-282.5 -574.76,-279.7 -574.76,-279.7 0,0 -474.35,-2.8 -574.76,279.7 -100.2,282.4 -53.48,800 60.24,1269.8 113.73,469.9 146.92,848.2 86.89,1051.7 -53.49,180.3 -92.99,379.8 15.93,446.2 h 258.89 v 2560.3 h 49.12 l -21.83,486.8 h 251.03 l -21.82,-486.8 h 49.11 V 6650.5 h 258.9 c 108.92,-66.4 69.41,-265.9 15.93,-446.2 -60.03,-203.5 -26.63,-581.8 86.88,-1051.7 113.73,-469.8 160.44,-987.4 60.25,-1269.8"
         style="display:none;fill:#be3d2a;fill-opacity:1;fill-rule:nonzero;stroke:none"
         transform="matrix(0.13333333,0,0,-0.13333333,0,4081.8933)" />
      <path
         id="path97"
         d="m 7610.68,7757.1 c -31.87,0 -61.99,8.1 -88.19,22.3 -50.2,-68.8 -131.41,-113.3 -222.87,-113.3 -152.59,0 -276.35,123.8 -276.35,276.3 0,152.6 123.76,276.2 276.35,276.2 91.68,0 172.88,-44.5 223.09,-113.3 26.2,14.2 56.32,22.3 87.97,22.3 102.38,0 185.33,-83 185.33,-185.2 0,-102.3 -82.95,-185.3 -185.33,-185.3 z m 586.55,-1368.2 c -170.27,651.1 -242.3,1004.1 -248.85,1298.8 -6.55,294.7 -88.41,633 -199.74,702.2 H 7422.3 v 132.5 c -86.44,40.6 -149.75,176 -149.75,336.9 0,160.6 63.31,296 149.75,336.8 v 405.4 h -59.81 c 0,0 -568.65,-374.8 -568.65,-1109.8 0,-734.8 357.99,-1087.8 613.4,-1495.3 255.18,-407.4 573.88,-687.6 714.68,-1284.2 140.8,-596.6 127.7,-1007.9 108.05,-1379 -19.64,-371.1 -72.03,-663.8 -72.03,-663.8 0,0 -8.3,-54.6 36.02,-63.7 44.09,-9.2 58.93,7.2 72.03,38.2 13.1,31 137.52,416.5 147.35,1056.9 9.82,640.3 -46.06,1036.9 -216.11,1688.1"
         style="display:none;fill:#be3d2a;fill-opacity:1;fill-rule:nonzero;stroke:none"
         transform="matrix(0.13333333,0,0,-0.13333333,0,4081.8933)" />
      <path
         id="path98"
         d="m 7186.55,7169.3 c -65.49,95.1 -133.82,194 -197.56,301.9 -29.47,-257.2 -102.38,-581.6 -233.35,-1082.3 -170.05,-651.2 -225.93,-1047.8 -216.11,-1688.1 9.82,-640.4 134.47,-1025.9 147.35,-1056.9 13.09,-31 27.94,-47.4 72.03,-38.2 44.32,9.1 36.02,63.7 36.02,63.7 0,0 -52.17,292.7 -71.82,663.8 -19.64,371.1 -32.95,782.4 108.06,1379 118.75,504 364.54,782.1 592,1101.9 -30.34,44.1 -60.68,89.3 -89.93,136 -46.06,73.3 -94.96,144.1 -146.69,219.2"
         style="display:none;fill:#be3d2a;fill-opacity:1;fill-rule:nonzero;stroke:none"
         transform="matrix(0.13333333,0,0,-0.13333333,0,4081.8933)" />
      <path
         id="path99"
         d="m 7794.7,8464.2 c 144.73,-90 215.67,-416.1 235.32,-666.9 77.93,192.3 129.23,416 129.23,694.4 0,735 -568.87,1109.8 -568.87,1109.8 h -58.94 v -405.8 c 86.01,-41.3 148.88,-176.4 148.88,-336.4 0,-160.3 -62.87,-295.4 -148.88,-336.4 v -45.6 h 242.09 l 21.17,-13.1"
         style="display:none;fill:#be3d2a;fill-opacity:1;fill-rule:nonzero;stroke:none"
         transform="matrix(0.13333333,0,0,-0.13333333,0,4081.8933)" />
      <path
         id="path100"
         d="m 7299.62,8136.6 c -107.43,0 -194.17,-87 -194.17,-194.1 0,-107.5 86.74,-194.5 194.17,-194.5 74.54,0 139.53,42.2 171.62,104 14.59,27.1 22.55,57.8 22.55,90.5 0,32.6 -7.96,63.1 -22.55,90.2 -32.09,61.8 -97.08,103.9 -171.62,103.9"
         style="display:none;fill:#be3d2a;fill-opacity:1;fill-rule:nonzero;stroke:none"
         transform="matrix(0.13333333,0,0,-0.13333333,0,4081.8933)" />
      <path
         id="path101"
         d="m 15159.4,7574.4 c 2.7,0.4 5.4,1 8.2,1.3 l 0.7,0.1 c -3,-0.4 -5.9,-1 -8.9,-1.4 z M 16427,5171.8 c -127.2,566.4 -332,887.7 -443.5,1029.5 -46.7,59.2 -58.7,144.1 -32.1,217.9 l 71.4,198.5 -419.1,239.9 c -15.3,8.8 -33.1,8.3 -47.9,0 l -28.2,334.5 -53.3,38.2 c -0.3,-1.5 -0.9,-2.8 -1.3,-4.3 5.8,22.5 9.2,46 9.2,70.3 0,155.5 -126,281.5 -281.5,281.5 -8.3,0 -16.4,-0.6 -24.6,-1.3 1.1,0.1 2.2,0.3 3.3,0.3 3.9,0.3 7.8,0.5 11.8,0.7 l -108.5,707.4 c -1.6,10.2 -14.3,13.8 -20.9,5.9 -50.5,-61 -197.4,-256.8 -215.8,-489.3 -22.2,-281.6 25.9,-428 25.9,-428 l 53,-21 c -3.7,-18.1 -5.6,-36.9 -5.6,-56.2 0,-155.4 126,-281.4 281.4,-281.4 27.3,0 53.6,4 78.5,11.3 l -0.3,-0.2 31.7,-142.2 H 15091 l 15.5,69.8 c -106.9,29.4 -193.6,107.6 -235,208.9 l -25.7,-304.9 c -14.8,8.3 -32.4,8.8 -47.9,0 l -419.2,-239.9 71.5,-198.5 c 26.6,-73.8 14.3,-158.7 -32.1,-217.9 -111.6,-141.8 -316.3,-463.1 -443.8,-1029.5 -126.7,-564.4 -89.7,-1121.3 -55.7,-1407 12.7,-107.3 102.2,-179.7 195,-157.7 l 26.1,6 c 83.6,19.6 139.5,109.6 129.1,206.6 -27.5,258.6 -57.6,765.9 59.5,1205.7 143.2,538.3 428.2,978.1 547.6,1128 29.1,37 51.3,80.5 65.2,127.7 47.7,161 77.5,252.6 92.5,297.5 4.9,14.8 4.7,31.3 -0.7,45.4 l 33.8,151.7 h 268.1 l 33.8,-151.3 c -5.3,-14.3 -5.8,-30.7 -0.7,-45.8 15.1,-44.9 44.7,-136.5 92.3,-297.5 14.1,-47.2 36.1,-90.7 65.5,-127.7 119.4,-149.9 404.4,-589.7 547.6,-1128 117,-439.8 86.7,-947.1 59.2,-1205.7 -10.2,-97 45.8,-187 129.3,-206.6 l 26.2,-6 c 92.7,-22 182.3,50.4 195,157.7 34,285.7 70.8,842.6 -56,1407"
         style="display:none;fill:#be3d2a;fill-opacity:1;fill-rule:nonzero;stroke:none"
         transform="matrix(0.13333333,0,0,-0.13333333,0,4081.8933)" />
      <path
         id="path102"
         d="m 15538.2,7408 c 12.9,58.7 33.1,191.1 17.3,393.5 -18.3,232.5 -165.3,428.3 -215.8,489.3 -6.5,7.9 -19.2,4.3 -20.8,-5.9 l -80.8,-526 17.2,-111.3 c 132.8,-20.5 241.5,-114.9 282.9,-239.6"
         style="display:none;fill:#be3d2a;fill-opacity:1;fill-rule:nonzero;stroke:none"
         transform="matrix(0.13333333,0,0,-0.13333333,0,4081.8933)" />
      <path
         id="path103"
         d="m 11727,8421.2 h -777 c -28.5,0 -51.6,-21.9 -51.6,-48.8 v -768.2 c 0,-18.9 11.4,-35.3 28.1,-43.3 7,-3.5 15,-5.5 23.5,-5.5 h 777 c 8.4,0 16.5,2 23.5,5.5 16.7,8 28,24.4 28,43.3 v 768.2 c 0,26.9 -23.1,48.8 -51.5,48.8"
         style="display:none;fill:#be3d2a;fill-opacity:1;fill-rule:nonzero;stroke:none"
         transform="matrix(0.13333333,0,0,-0.13333333,0,4081.8933)" />
      <path
         id="path104"
         d="m 11338.6,4550.6 c -80.9,0 -146.2,64.5 -146.2,144.2 0,79.6 65.3,144 146.2,144 80.6,0 146,-64.4 146,-144 0,-79.7 -65.4,-144.2 -146,-144.2 z m 411.9,2931.5 c -7,-3.6 -15.1,-5.7 -23.5,-5.7 h -388.4 -388.6 c -8.5,0 -16.5,2.1 -23.5,5.7 14.2,-82.2 67.6,-380.8 107.9,-525 53.6,-192.8 113.4,-421.8 88,-710.9 -33,-379.9 -165.4,-631.4 -165.4,-1516.2 0,-713.7 381.6,-1126.9 381.6,-1126.9 0,0 381.6,413.2 381.6,1126.9 0,884.8 -132.5,1136.3 -165.7,1516.2 -25.1,289.1 34.7,518.1 88.3,710.9 40,144.2 93.4,442.8 107.7,525"
         style="display:none;fill:#be3d2a;fill-opacity:1;fill-rule:nonzero;stroke:none"
         transform="matrix(0.13333333,0,0,-0.13333333,0,4081.8933)" />
      <path
         id="path105"
         d="M 11803.2,9527.4 H 10874 c -48.8,0 -86.5,-35 -79.8,-74.3 l 161,-952.9 h 0.2 766.4 0.2 l 161,952.9 c 6.6,39.3 -31,74.3 -79.8,74.3"
         style="display:none;fill:#be3d2a;fill-opacity:1;fill-rule:nonzero;stroke:none"
         transform="matrix(0.13333333,0,0,-0.13333333,0,4081.8933)" />
      <path
         id="path106"
         d="m 17764.2,4071 c -3.1,0 -6.2,0 -9,0.4 v -468.3 h 266.8 v 507 l -233.4,-37.2 c -8.2,-1.1 -16.4,-1.9 -24.4,-1.9"
         style="display:none;fill:#be3d2a;fill-opacity:1;fill-rule:nonzero;stroke:none"
         transform="matrix(0.13333333,0,0,-0.13333333,0,4081.8933)" />
      <path
         id="path107"
         d="m 17788.6,5601.5 233.4,-37.1 v 1089.3 c 0,160.9 138.1,291.7 307.8,291.7 h 732 v 252.8 h -732 c -316.9,0 -574.6,-244.2 -574.6,-544.5 V 5602.9 c 2.8,0.4 5.9,0.4 9,0.4 8,0 16.2,-0.6 24.4,-1.8"
         style="display:none;fill:#be3d2a;fill-opacity:1;fill-rule:nonzero;stroke:none"
         transform="matrix(0.13333333,0,0,-0.13333333,0,4081.8933)" />
      <path
         id="path108"
         d="m 18180.2,3603.1 h 225.7 v 567.8 l -225.7,-35.7 v -532.1"
         style="display:none;fill:#be3d2a;fill-opacity:1;fill-rule:nonzero;stroke:none"
         transform="matrix(0.13333333,0,0,-0.13333333,0,4081.8933)" />
      <path
         id="path109"
         d="m 18180.2,6403.3 v -864 l 225.7,-35.8 v 899.8 c 0,122.1 104.7,221.3 233.4,221.3 h 680.9 v 213.9 h -680.9 c -253.1,0 -459.1,-195.3 -459.1,-435.2"
         style="display:none;fill:#be3d2a;fill-opacity:1;fill-rule:nonzero;stroke:none"
         transform="matrix(0.13333333,0,0,-0.13333333,0,4081.8933)" />
      <path
         id="path110"
         d="m 18548.8,3603.1 h 205.2 v 623.3 l -205.2,-32.7 v -590.6"
         style="display:none;fill:#be3d2a;fill-opacity:1;fill-rule:nonzero;stroke:none"
         transform="matrix(0.13333333,0,0,-0.13333333,0,4081.8933)" />
      <path
         id="path111"
         d="m 18548.8,6206.5 v -725.7 l 205.2,-32.7 v 758.4 c 0,83 71.2,150.7 159.1,150.7 h 617.5 v 194.5 h -617.5 c -201,0 -364.3,-154.8 -364.3,-345.2"
         style="display:none;fill:#be3d2a;fill-opacity:1;fill-rule:nonzero;stroke:none"
         transform="matrix(0.13333333,0,0,-0.13333333,0,4081.8933)" />
      <path
         id="path112"
         d="m 18863.4,3603.1 h 164.2 v 666.6 l -164.2,-26 v -640.6"
         style="display:none;fill:#be3d2a;fill-opacity:1;fill-rule:nonzero;stroke:none"
         transform="matrix(0.13333333,0,0,-0.13333333,0,4081.8933)" />
      <path
         id="path113"
         d="m 18863.4,5944 v -513.2 l 164.2,-26 V 5944 c 0,88.5 75.9,160.4 169.3,160.4 h 542.6 V 6260 h -542.6 c -183.9,0 -333.5,-141.8 -333.5,-316"
         style="display:none;fill:#be3d2a;fill-opacity:1;fill-rule:nonzero;stroke:none"
         transform="matrix(0.13333333,0,0,-0.13333333,0,4081.8933)" />
      <path
         id="path114"
         d="m 19147.2,3603.1 h 123.2 v 705.3 l -123.2,-19.6 v -685.7"
         style="display:none;fill:#be3d2a;fill-opacity:1;fill-rule:nonzero;stroke:none"
         transform="matrix(0.13333333,0,0,-0.13333333,0,4081.8933)" />
      <path
         id="path115"
         d="m 19147.2,5778.7 v -393 l 123.2,-19.6 v 412.6 c 0,67.1 57.6,121.5 128.2,121.5 h 508.4 v 116.7 h -508.4 c -138.5,0 -251.4,-106.9 -251.4,-238.2"
         style="display:none;fill:#be3d2a;fill-opacity:1;fill-rule:nonzero;stroke:none"
         transform="matrix(0.13333333,0,0,-0.13333333,0,4081.8933)" />
      <path
         id="path116"
         d="m 19376.5,3603.1 h 102.6 v 738.4 l -102.6,-16.4 v -722"
         style="display:none;fill:#be3d2a;fill-opacity:1;fill-rule:nonzero;stroke:none"
         transform="matrix(0.13333333,0,0,-0.13333333,0,4081.8933)" />
      <path
         id="path117"
         d="m 19376.5,5651.5 v -302.2 l 102.6,-16.3 v 318.5 c 0,45.9 39.6,83.4 88,83.4 h 472.7 v 97.3 h -472.7 c -105.1,0 -190.6,-81.1 -190.6,-180.7"
         style="display:none;fill:#be3d2a;fill-opacity:1;fill-rule:nonzero;stroke:none"
         transform="matrix(0.13333333,0,0,-0.13333333,0,4081.8933)" />
      <path
         id="path118"
         d="m 19566.3,3603.1 h 82.1 v 765.2 l -82.1,-13 v -752.2"
         style="display:none;fill:#be3d2a;fill-opacity:1;fill-rule:nonzero;stroke:none"
         transform="matrix(0.13333333,0,0,-0.13333333,0,4081.8933)" />
      <path
         id="path119"
         d="m 19566.3,5504.9 v -185.7 l 82.1,-13 v 198.7 c 0,51.7 44.5,93.9 99.1,93.9 h 403.1 v 77.8 h -403.1 c -99.9,0 -181.2,-77 -181.2,-171.7"
         style="display:none;fill:#be3d2a;fill-opacity:1;fill-rule:nonzero;stroke:none"
         transform="matrix(0.13333333,0,0,-0.13333333,0,4081.8933)" />
      <path
         id="path120"
         d="m 19725.4,3603.1 h 82 v 790.5 l -82,-13 v -777.5"
         style="display:none;fill:#be3d2a;fill-opacity:1;fill-rule:nonzero;stroke:none"
         transform="matrix(0.13333333,0,0,-0.13333333,0,4081.8933)" />
      <path
         id="path121"
         d="m 19725.4,5390.6 v -96.7 l 82,-13 v 109.7 c 0,42.4 36.6,77 81.3,77 h 361.4 v 77.8 h -361.4 c -90.1,0 -163.3,-69.5 -163.3,-154.8"
         style="display:none;fill:#be3d2a;fill-opacity:1;fill-rule:nonzero;stroke:none"
         transform="matrix(0.13333333,0,0,-0.13333333,0,4081.8933)" />
      <path
         id="path122"
         d="m 19863.9,3603.1 h 61.6 v 809.4 l -61.6,-10 v -799.4"
         style="display:none;fill:#be3d2a;fill-opacity:1;fill-rule:nonzero;stroke:none"
         transform="matrix(0.13333333,0,0,-0.13333333,0,4081.8933)" />
      <path
         id="path123"
         d="m 19863.9,5292.6 v -20.7 l 61.6,-9.9 v 30.6 c 0,32 27.7,58.3 61.5,58.3 h 359.2 v 58.3 H 19987 c -67.9,0 -123.1,-52.3 -123.1,-116.6"
         style="display:none;fill:#be3d2a;fill-opacity:1;fill-rule:nonzero;stroke:none"
         transform="matrix(0.13333333,0,0,-0.13333333,0,4081.8933)" />
      <path
         id="path124"
         d="m 20184.7,4720.5 c -68.2,0 -123.2,52.3 -123.2,116.6 0,64.6 55,116.7 123.2,116.7 67.9,0 123.1,-52.1 123.1,-116.7 0,-64.3 -55.2,-116.6 -123.1,-116.6 z m 0,361.1 h -178.9 v 39.7 c 0,9.3 -1.8,18.3 -5,26.7 -9.9,25.1 -33.3,44.3 -62.5,48.9 l -2160.6,343.2 c -49.4,7.8 -94.4,-28.2 -94.4,-75.7 V 4837.2 4210 c 0,-47.4 45,-83.5 94.4,-75.7 l 2160.6,343.2 c 9.7,1.6 18.8,4.7 27,9.2 8.1,4.4 15.4,10.2 21.4,16.9 3,3.4 5.7,7 8,10.8 4.8,7.6 8.1,16.1 9.8,25 0.9,4.5 1.3,9.1 1.3,13.8 v 39.7 h 178.9 c 142.2,0 257.7,109.5 257.7,244.2 0,135 -115.5,244.5 -257.7,244.5"
         style="display:none;fill:#be3d2a;fill-opacity:1;fill-rule:nonzero;stroke:none"
         transform="matrix(0.13333333,0,0,-0.13333333,0,4081.8933)" />
    </g>
  </g>
</svg>
