<?xml version="1.0" encoding="UTF-8" standalone="no"?>
<!-- Created with Inkscape (http://www.inkscape.org/) -->

<svg
   width="242.7005mm"
   height="239.43538mm"
   viewBox="0 0 242.7005 239.43538"
   version="1.1"
   id="svg1"
   xml:space="preserve"
   xmlns="http://www.w3.org/2000/svg"
   xmlns:svg="http://www.w3.org/2000/svg"><defs
     id="defs1" /><g
     id="layer1"
     transform="translate(-838.93713,-276.42264)"><g
       id="g3"
       transform="translate(390.06969,-38.469692)"><g
         id="g7"
         transform="translate(0.28737523,75.27364)"><g
           id="g13"
           transform="matrix(1.7430151,0,0,1.7430151,385.88842,115.44647)"
           style="stroke-width:0.573719"><g
             id="g65"
             transform="translate(0.06080434,-0.99506411)"
             style="display:inline;stroke-width:0.573719"><path
               id="path139"
               style="baseline-shift:baseline;display:inline;overflow:visible;opacity:1;vector-effect:none;fill:#102e50;stroke-width:0.573719;stroke-linecap:round;stroke-linejoin:round;paint-order:markers stroke fill;enable-background:accumulate;stop-color:#000000;stop-opacity:1"
               d="m 45.986274,72.255804 c -0.506432,0.03023 -1.031195,0.09432 -1.564419,0.205188 -1.091501,0.226974 -2.211275,0.653474 -3.230422,1.302709 -1.039209,0.662012 -1.90167,1.511579 -2.554739,2.396409 -0.664998,0.900992 -1.118303,1.820647 -1.449239,2.685538 -0.342156,0.894212 -0.565452,1.760199 -0.73434,2.601597 -0.155232,0.773367 -0.265753,1.54103 -0.349584,2.312468 v 0.002 c -0.01159,0.106827 -0.0227,0.213628 -0.03326,0.320368 v 0.002 c -0.175357,1.776713 -0.232325,3.899065 -0.05855,6.322177 0.163097,2.274153 0.532264,4.842719 1.222701,7.621179 1.31832,5.305193 3.82088,11.393153 8.236294,17.517513 2.330121,3.23231 4.96848,5.76145 7.6895,7.67579 2.754893,1.93817 5.568758,3.23517 8.187412,4.09567 1.083013,0.35587 1.936068,0.39167 2.947248,0.61725 -0.141614,0.8342 -0.130625,1.63646 -0.05854,2.43552 0.153748,1.70449 0.757586,3.44581 1.884787,5.05666 1.024815,1.46454 2.522305,2.68571 4.316368,3.64642 -0.982352,1.29481 -1.663999,2.65204 -1.843772,3.47662 -0.553472,2.53865 0.153618,4.07563 1.00785,5.55862 0.854233,1.483 2.133342,2.8129 3.832052,3.80273 2.559933,1.49165 5.942306,1.97871 9.640585,1.23236 -0.223326,1.85279 -0.401666,3.80922 -0.378913,5.93169 0.09779,9.12155 3.51207,20.84006 14.630838,29.60935 6.264069,25.93917 9.879469,29.84245 17.277639,-0.17227 7.78951,-5.70226 11.38096,-15.13925 12.54693,-23.98634 0.52946,-4.01739 0.58663,-7.88384 0.25194,-11.54695 3.92002,0.91833 7.52984,0.51132 10.22064,-1.05662 1.6987,-0.98983 2.97593,-2.31781 3.83014,-3.80081 0.85422,-1.483 1.56323,-3.0199 1.00976,-5.55851 -0.17971,-0.82431 -0.86198,-2.18209 -1.84377,-3.47662 1.7944,-0.96067 3.28945,-2.18184 4.31445,-3.64653 1.12725,-1.61079 1.73103,-3.35204 1.88479,-5.05655 0.0724,-0.80227 0.0849,-1.60744 -0.0587,-2.44529 1.01155,-0.22563 1.86584,-0.26123 2.94928,-0.61725 2.61886,-0.86056 5.43077,-2.15965 8.1855,-4.0977 2.72096,-1.9143 5.36123,-4.44139 7.69141,-7.67377 4.41542,-6.12437 6.91608,-12.21439 8.23438,-17.519533 0.69045,-2.778488 1.0596,-5.345007 1.2227,-7.619156 0.17378,-2.423186 0.1166,-4.547816 -0.0587,-6.3242 -0.0101,-0.101725 -0.0208,-0.210281 -0.0331,-0.322278 v -0.0058 c -0.0837,-0.76918 -0.19279,-1.535078 -0.34768,-2.306738 -0.16892,-0.841554 -0.39428,-1.707497 -0.73636,-2.601485 -0.33096,-0.864974 -0.78417,-1.784583 -1.44913,-2.685538 -0.65305,-0.884801 -1.5136,-1.734499 -2.55283,-2.396521 -1.01861,-0.648908 -2.14009,-1.075583 -3.23233,-1.302709 -1.06829,-0.222148 -2.08799,-0.261121 -3.03321,-0.205076 -1.85417,0.109939 -3.51398,0.560288 -5.1778,1.126962 -0.006,0.0019 -0.0117,0.0039 -0.0175,0.0058 -1.23344,0.424446 -2.33608,0.973868 -3.42392,1.589815 -1.0956,0.620343 -2.19506,1.328745 -3.31639,2.107505 -2.26889,1.575731 -4.65607,3.462054 -7.05078,5.474569 -5.07559,4.265534 -10.18951,9.117151 -13.95898,12.898425 v -0.002 c -1.91816,1.923463 -4.26212,4.114303 -6.48242,6.140708 -1.11285,1.01566 -2.05867,1.85027 -3.16019,2.83779 0.0269,-0.13237 0.1128,-0.32121 0.13676,-0.45116 0.32658,-1.77161 1.17394,-2.98184 -0.61916,-6.158122 -0.89656,-1.588139 -4.16826,-3.31445 -6.28117,-2.880838 -2.11292,0.433612 -2.88414,1.366858 -3.54112,2.064355 -1.31396,1.394994 -2.00959,2.767568 -2.8124,4.593815 -0.9056,2.06009 -3.83008,2.06046 -4.73462,0.002 -0.80274,-1.826653 -1.49872,-3.198425 -2.81252,-4.593698 -0.656903,-0.697637 -1.427469,-1.632656 -3.541009,-2.066489 -2.11354,-0.433834 -5.38513,1.294794 -6.281275,2.88286 -1.792291,3.176127 -0.945703,4.384347 -0.619161,6.156207 0.02372,0.12871 0.108219,0.31626 0.134845,0.44735 -1.101029,-0.98713 -2.045913,-1.8227 -3.15828,-2.83791 -2.220578,-2.026075 -4.564554,-4.214898 -6.48255,-6.13821 -3.76947,-3.781277 -8.883384,-8.632891 -13.958976,-12.898425 -2.394703,-2.012513 -4.781893,-3.896928 -7.050787,-5.472659 -1.121099,-0.778596 -2.22047,-1.488896 -3.316384,-2.109415 -1.087837,-0.615945 -2.192393,-1.16537 -3.425834,-1.589815 -0.0052,-0.002 -0.01041,-0.004 -0.01562,-0.006 -1.663808,-0.566671 -3.323507,-1.014999 -5.177686,-1.124939 -0.473258,-0.02806 -0.962778,-0.03219 -1.468793,-0.002 z" /></g><g
             id="g102"
             style="display:inline;fill:#222b00;stroke-width:0.573719"
             transform="translate(-5.2335419,11.471413)"><g
               id="g78"
               transform="translate(4.6624532,-22.345772)"
               style="display:inline;fill:#222b00;stroke-width:0.573719"><path
                 id="path76"
                 style="opacity:1;fill:#222b00;fill-opacity:1;stroke:none;stroke-width:0.689003;stroke-linecap:round;stroke-linejoin:round;stroke-opacity:1;paint-order:markers stroke fill"
                 d="m 112.00714,150.70209 -2.89285,3.59874 c 4.79782,-0.67134 8.84649,-1.17564 8.84649,-1.17564 l -1.12086,-2.07842 c -1.71075,-0.15529 -3.32056,-0.26797 -4.83278,-0.34468 z m -14.301973,0.45733 c -4.00532,0.57515 -5.720581,1.36426 -5.720581,1.36426 -2.515625,3.66406 -3.281453,10.22625 -3.281453,10.22625 2.838019,0.29275 5.496566,0.69891 8.012431,0.66611 14.403556,-0.18798 23.268866,-5.20485 23.268866,-5.20485 l -0.76585,-2.1332 c -7.60156,3.66407 -26.030966,3.60959 -26.030966,3.60959 l 1.531172,-2.9533 c 1.392235,-0.3797 3.924116,-0.84188 6.819734,-1.3069 z" /><path
                 id="path77"
                 style="opacity:1;fill:#222b00;fill-opacity:1;stroke:none;stroke-width:1.43429;stroke-linecap:butt;stroke-linejoin:miter;stroke-dasharray:none;stroke-opacity:1;paint-order:markers stroke fill"
                 d="m 120.49551,178.77117 c 0,0 -9.9385,7.73366 -27.80399,5.56814 0,0 4.567696,9.04696 10.05003,11.24272 l 2.60088,15.88276 3.64784,-16.59951 c 4.74633,-2.77 8.33437,-9.40459 8.33437,-9.40459 l -11.60342,6.47919 c 0,0 -6.154184,-3.49487 -6.162419,-3.54139 0,0 12.584019,-1.58399 20.936709,-9.62732 z" /><path
                 style="opacity:1;fill:#222b00;fill-opacity:1;stroke:none;stroke-width:1.43429;stroke-linecap:butt;stroke-linejoin:miter;stroke-dasharray:none;stroke-opacity:1;paint-order:markers stroke fill"
                 d="m 120.84999,159.34382 c -1.86616,0.87527 -16.65578,7.47941 -32.188284,4.58432 0,0 -1.271081,7.29837 0.697669,12.93119 0,0 18.429695,1.64062 27.781255,-5.14063 0,0 -1.03907,4.10156 -1.96875,4.92188 0,0 -9.16016,4.40234 -24.964848,2.51562 0,0 0.300781,2.07813 1.722656,3.99219 0,0 18.611372,2.14722 28.546872,-5.96094 0,0 1.71797,-5.71035 1.09375,-11.32031 0,0 -9.67968,6.15088 -27.00624,7.14047 0,0 0.138545,-3.55311 0.14101,-3.57211 0,0 11.3869,-0.31651 21.5719,-6.69398 1.56815,-0.98192 3.1078,-2.10751 4.57301,-3.39775 z"
                 id="path78" /></g><g
               id="g101"
               style="display:inline;fill:#222b00;stroke-width:0.573719"
               transform="translate(4.5256681,3.4724515)"><g
                 id="g80"
                 style="display:inline;fill:#222b00;fill-opacity:1;stroke-width:0.573719"
                 transform="translate(0,-25.818236)"><path
                   style="opacity:1;fill:#222b00;fill-opacity:1;fill-rule:nonzero;stroke:none;stroke-width:0.458975;stroke-linecap:butt;stroke-linejoin:miter;stroke-dasharray:none;stroke-opacity:1;paint-order:markers stroke fill"
                   d="m 96.799599,130.28564 v 0 c -0.126811,0.15406 -0.700287,0.71951 -2.393274,-0.27924 -1.119634,-0.6605 -3.244985,-2.24957 -6.777083,-5.20973 -2.039412,-1.70918 -4.609587,-3.93254 -7.247827,-6.33156 -2.281736,-2.07483 -4.7074,-4.36633 -6.76997,-6.49245 -3.583309,-3.69501 -8.442599,-8.48816 -13.14964,-12.659651 -2.217822,-1.965486 -4.373061,-3.766443 -6.289487,-5.20266 -0.946236,-0.709132 -1.822639,-1.320597 -2.611764,-1.816405 -0.79264,-0.498015 -1.46746,-0.860505 -2.020501,-1.092419 -1.266666,-0.523963 -2.257661,-0.832971 -3.049222,-0.955345 -0.394883,-0.06105 -0.7236,-0.07286 -0.999821,-0.04809 -0.276873,0.02482 -0.509261,0.08701 -0.710751,0.182484 -0.206649,0.09792 -0.403717,0.241688 -0.592837,0.451746 -0.19622,0.217946 -0.382844,0.506428 -0.554376,0.879705 -0.177254,0.385731 -0.331821,0.847687 -0.4635,1.387684 -0.120485,0.49409 -0.219676,1.044682 -0.300002,1.647816 -0.01093,0.08209 -0.02161,0.165595 -0.03202,0.250531 -0.167237,1.36327 -0.254845,3.084443 -0.147934,5.101419 0.100259,1.89148 0.372997,4.06403 0.923297,6.43947 1.049802,4.53161 3.114818,9.82026 6.92858,15.25151 1.863617,2.65432 3.921487,4.66909 6.030183,6.20318 2.136509,1.55431 4.323033,2.61348 6.403836,3.34188 2.14508,0.75091 4.191384,1.15479 5.965964,1.38029 1.860246,0.23638 3.497523,0.28497 4.678866,0.30736 0.648417,0.0121 1.424549,0.0367 2.270815,0.0713 0.89562,0.0367 1.863327,0.0845 2.855558,0.1412 2.265959,0.12953 4.509359,0.29657 6.50108,0.48341 2.686114,0.25196 4.601257,0.5093 5.933739,0.74149 0.29975,0.0522 0.564383,0.10219 0.79813,0.14938 0.569682,0.11499 1.006175,0.22454 1.344513,0.3247 0.332846,0.0985 0.574961,0.18924 0.754335,0.26815 0.269433,0.11854 0.413867,0.21808 0.495815,0.28238 -0.0926,-0.0493 -0.249927,-0.11591 -0.527246,-0.19574 -0.184305,-0.053 -0.43115,-0.11472 -0.765831,-0.18355 -0.340178,-0.07 -0.77861,-0.14889 -1.347665,-0.23497 -0.233682,-0.0354 -0.498192,-0.0731 -0.797672,-0.11272 -1.326408,-0.17547 -3.249014,-0.37499 -5.927126,-0.55821 -1.97981,-0.13544 -4.239357,-0.25193 -6.490747,-0.32519 -0.988991,-0.0322 -1.955667,-0.0552 -2.846114,-0.0667 -0.842333,-0.0108 -1.612833,-0.0112 -2.251583,9.6e-4 -1.194363,0.0224 -2.864913,0.0222 -4.784122,-0.17426 -1.828031,-0.18711 -3.955219,-0.55868 -6.200737,-1.29655 -2.179288,-0.71612 -4.487465,-1.78279 -6.755052,-3.37812 -2.239735,-1.57574 -4.42723,-3.65835 -6.409366,-6.40794 -3.987533,-5.53087 -6.202516,-10.95691 -7.36883,-15.6504 -0.610881,-2.45831 -0.934886,-4.71812 -1.076896,-6.69824 -0.151341,-2.110246 -0.09842,-3.932494 0.04644,-5.400209 0.009,-0.09095 0.01826,-0.180643 0.02788,-0.269093 0.07037,-0.647564 0.159558,-1.261052 0.273955,-1.830979 0.124544,-0.620476 0.28129,-1.201309 0.482985,-1.728432 0.195218,-0.510196 0.437559,-0.983448 0.745432,-1.400579 0.302129,-0.409348 0.665204,-0.761553 1.100984,-1.03916 0.427217,-0.272153 0.901748,-0.458201 1.417775,-0.565507 0.505033,-0.105019 1.04143,-0.132992 1.604101,-0.09963 1.102327,0.06536 2.350317,0.369225 3.747587,0.845117 0.771161,0.265368 1.619449,0.673677 2.515142,1.180828 0.901893,0.510662 1.874718,1.134669 2.894353,1.842799 2.063097,1.432807 4.345335,3.229267 6.654427,5.169832 4.895402,4.114102 9.933167,8.890292 13.606351,12.574982 2.022438,2.02804 4.413656,4.26047 6.66646,6.31654 2.519971,2.29989 5.203527,4.68346 7.092167,6.3701 3.486523,3.11362 5.283649,4.76321 6.19143,5.81825 1.273366,1.47994 0.837208,2.13876 0.706823,2.29717 z"
                   id="path79" /><path
                   style="fill:#222b00;fill-opacity:1;fill-rule:nonzero;stroke:none;stroke-width:0.458975;stroke-linecap:butt;stroke-linejoin:miter;stroke-dasharray:none;stroke-opacity:1;paint-order:markers stroke fill"
                   d="m 96.799599,130.28564 v 0 c -0.126811,0.15406 -0.700287,0.71951 -2.393274,-0.27924 -1.119634,-0.6605 -3.244985,-2.24957 -6.777083,-5.20973 -2.039412,-1.70918 -4.609587,-3.93254 -7.247827,-6.33156 -2.281736,-2.07483 -4.7074,-4.36633 -6.76997,-6.49245 -3.583309,-3.69501 -8.442599,-8.48816 -13.14964,-12.659651 -2.217822,-1.965486 -4.373061,-3.766443 -6.289487,-5.20266 -0.946236,-0.709132 -1.822639,-1.320597 -2.611764,-1.816405 -0.79264,-0.498015 -1.46746,-0.860505 -2.020501,-1.092419 -1.266666,-0.523963 -2.257661,-0.832971 -3.049222,-0.955345 -0.394883,-0.06105 -0.7236,-0.07286 -0.999821,-0.04809 -0.276873,0.02482 -0.509261,0.08701 -0.710751,0.182484 -0.206649,0.09792 -0.403717,0.241688 -0.592837,0.451746 -0.19622,0.217946 -0.382844,0.506428 -0.554376,0.879705 -0.177254,0.385731 -0.331821,0.847687 -0.4635,1.387684 -0.120485,0.49409 -0.219676,1.044682 -0.300002,1.647816 -0.01093,0.08209 -0.02161,0.165595 -0.03202,0.250531 -0.167237,1.36327 -0.254845,3.084443 -0.147934,5.101419 0.100259,1.89148 0.372997,4.06403 0.923297,6.43947 1.049802,4.53161 3.114818,9.82026 6.92858,15.25151 1.863617,2.65432 3.921487,4.66909 6.030183,6.20318 2.136509,1.55431 4.323033,2.61348 6.403836,3.34188 2.14508,0.75091 4.191384,1.15479 5.965964,1.38029 1.860246,0.23638 3.497523,0.28497 4.678866,0.30736 0.648417,0.0121 1.424549,0.0367 2.270815,0.0713 0.89562,0.0367 1.863327,0.0845 2.855558,0.1412 2.265959,0.12953 4.509359,0.29657 6.50108,0.48341 2.686114,0.25196 4.601257,0.5093 5.933739,0.74149 0.29975,0.0522 0.564383,0.10219 0.79813,0.14938 0.569682,0.11499 1.006175,0.22454 1.344513,0.3247 0.332846,0.0985 0.574961,0.18924 0.754335,0.26815 0.269433,0.11854 0.413867,0.21808 0.495815,0.28238 -0.0926,-0.0493 -0.249927,-0.11591 -0.527246,-0.19574 -0.184305,-0.053 -0.43115,-0.11472 -0.765831,-0.18355 -0.340178,-0.07 -0.77861,-0.14889 -1.347665,-0.23497 -0.233682,-0.0354 -0.498192,-0.0731 -0.797672,-0.11272 -1.326408,-0.17547 -3.249014,-0.37499 -5.927126,-0.55821 -1.97981,-0.13544 -4.239357,-0.25193 -6.490747,-0.32519 -0.988991,-0.0322 -1.955667,-0.0552 -2.846114,-0.0667 -0.842333,-0.0108 -1.612833,-0.0112 -2.251583,9.6e-4 -1.194363,0.0224 -2.864913,0.0222 -4.784122,-0.17426 -1.828031,-0.18711 -3.955219,-0.55868 -6.200737,-1.29655 -2.179288,-0.71612 -4.487465,-1.78279 -6.755052,-3.37812 -2.239735,-1.57574 -4.42723,-3.65835 -6.409366,-6.40794 -3.987533,-5.53087 -6.202516,-10.95691 -7.36883,-15.6504 -0.610881,-2.45831 -0.934886,-4.71812 -1.076896,-6.69824 -0.151341,-2.110246 -0.09842,-3.932494 0.04644,-5.400209 0.009,-0.09095 0.01826,-0.180643 0.02788,-0.269093 0.07037,-0.647564 0.159558,-1.261052 0.273955,-1.830979 0.124544,-0.620476 0.28129,-1.201309 0.482985,-1.728432 0.195218,-0.510196 0.437559,-0.983448 0.745432,-1.400579 0.302129,-0.409348 0.665204,-0.761553 1.100984,-1.03916 0.427217,-0.272153 0.901748,-0.458201 1.417775,-0.565507 0.505033,-0.105019 1.04143,-0.132992 1.604101,-0.09963 1.102327,0.06536 2.350317,0.369225 3.747587,0.845117 0.771161,0.265368 1.619449,0.673677 2.515142,1.180828 0.901893,0.510662 1.874718,1.134669 2.894353,1.842799 2.063097,1.432807 4.345335,3.229267 6.654427,5.169832 4.895402,4.114102 9.933167,8.890292 13.606351,12.574982 2.022438,2.02804 4.413656,4.26047 6.66646,6.31654 2.519971,2.29989 5.203527,4.68346 7.092167,6.3701 3.486523,3.11362 5.283649,4.76321 6.19143,5.81825 1.273366,1.47994 0.837208,2.13876 0.706823,2.29717 z"
                   id="path80"
                   transform="matrix(-1,0,0,1,210.23847,0.00320054)" /></g><g
                 id="g85"
                 transform="translate(0,-25.818236)"
                 style="fill:#222b00;stroke-width:0.573719"><path
                   id="path81"
                   style="display:inline;opacity:1;fill:#222b00;fill-opacity:1;fill-rule:nonzero;stroke:none;stroke-width:0.573719;stroke-linecap:round;stroke-linejoin:round;paint-order:markers stroke fill"
                   d="m 95.875082,142.2589 c -0.03681,-0.21274 -0.01726,-0.67767 -0.120166,-1.2428 -0.0749,-0.41133 -0.187371,-0.93493 -0.262973,-1.62097 -0.08694,-0.78892 -0.112272,-1.68487 -0.01608,-2.78576 0.04239,-1.31892 0.344165,-2.57722 0.867679,-3.72556 0.517037,-1.13414 1.241649,-2.1417 2.115287,-2.97967 0.897182,-0.86055 1.932873,-1.52497 3.038203,-1.97691 1.17183,-0.47912 2.39487,-0.70946 3.61234,-0.71629 0.0182,-10e-5 0.0364,-1.6e-4 0.0547,-1.6e-4 1.236,-1.7e-4 2.47811,0.22973 3.66732,0.71578 1.10578,0.45195 2.14157,1.11645 3.03866,1.97684 0.87392,0.83817 1.59857,1.84589 2.11557,2.97997 0.52363,1.14863 0.82534,2.4071 0.86766,3.726 0.18437,2.09999 -0.24628,3.67181 -0.4584,4.638 -0.13068,0.59526 -0.12273,1.06863 -0.1644,1.28446 0.17125,-0.11776 0.63534,-0.32872 1.05758,-0.83476 0.64795,-0.77654 1.66198,-2.5519 1.84306,-5.0877 0.0424,-1.62485 -0.24383,-3.21828 -0.8342,-4.70359 -0.58212,-1.46458 -1.44604,-2.78845 -2.52554,-3.90371 -1.10794,-1.14465 -2.41899,-2.04534 -3.84504,-2.66427 -1.53582,-0.66658 -3.155,-0.98591 -4.76227,-0.98608 -0.0237,0 -0.0473,6e-5 -0.0709,2e-4 -1.58357,0.009 -3.178,0.32843 -4.69164,0.9852 -1.425811,0.61866 -2.737116,1.5192 -3.845483,2.66421 -1.079448,1.11512 -1.943557,2.43905 -2.525825,3.90401 -0.590344,1.48528 -0.876651,3.07885 -0.834179,4.70403 0.09626,1.28752 0.363543,2.34492 0.720012,3.20871 0.304284,0.73733 0.65515,1.28568 0.936757,1.62947 0.398895,0.48699 0.854371,0.69474 1.0223,0.81135 z"
                   transform="translate(-0.04431964)" /><path
                   id="path82"
                   style="display:inline;opacity:1;fill:#222b00;fill-opacity:1;fill-rule:nonzero;stroke:none;stroke-width:1.43429;stroke-linecap:butt;stroke-linejoin:miter;stroke-dasharray:none;stroke-opacity:1;paint-order:markers stroke fill"
                   d="m 113.20994,144.70665 c -0.0861,0.61355 -0.27352,1.6582 -0.70463,2.9094 -0.32052,0.93024 -0.79843,2.0404 -1.51255,3.17973 -0.62382,0.99527 -1.44065,2.03311 -2.51114,2.99229 -0.90685,0.81256 -2.00239,1.57469 -3.32805,2.20707 v 0 c -1.35198,-0.58464 -2.52092,-1.40352 -3.52348,-2.35848 -1.0995,-1.0473 -1.978258,-2.23887 -2.660629,-3.41032 -0.700996,-1.20342 -1.185861,-2.37091 -1.491277,-3.3159 -0.160076,-0.4953 -0.270591,-0.92788 -0.340668,-1.27921 -0.03622,-0.18157 -0.06112,-0.3388 -0.07688,-0.47072 -0.01637,-0.13697 -0.02191,-0.23862 -0.02191,-0.3078 -10e-7,-0.9199 0.199273,-1.84254 0.616367,-2.72281 0.389053,-0.8211 0.962256,-1.5921 1.707065,-2.25696 1.457982,-1.3015 3.491102,-2.12055 5.757082,-2.12055 2.42894,0 4.42265,0.92935 5.75708,2.12054 0.79488,0.70957 1.34681,1.49666 1.70706,2.25697 0.49228,1.03894 0.61637,1.998 0.61637,2.72281 z m 2.09293,0.14606 c 0,-0.96798 -0.16683,-2.24711 -0.81892,-3.62335 -0.47601,-1.00462 -1.19472,-2.02167 -2.20708,-2.92537 -1.69767,-1.51545 -4.18312,-2.65472 -7.15763,-2.65472 -2.77187,0 -5.306309,1.00211 -7.157629,2.65471 -0.947497,0.8458 -1.693758,1.84199 -2.207093,2.92538 -0.551763,1.1645 -0.81892,2.39503 -0.818919,3.62335 0,0.1723 0.01316,0.35974 0.03677,0.55731 0.02314,0.19368 0.05733,0.40537 0.102655,0.6326 0.08755,0.43893 0.219573,0.95026 0.401961,1.51459 0.347495,1.0752 0.89049,2.38059 1.675188,3.72771 0.762818,1.30955 1.758995,2.66642 3.027377,3.87458 1.27403,1.21354 2.80494,2.25989 4.61818,2.96221 0.26009,0.10075 0.54954,0.094 0.80468,-0.0187 1.71905,-0.75932 3.12901,-1.71492 4.28268,-2.74863 1.23698,-1.10837 2.17654,-2.30391 2.88969,-3.44168 0.81539,-1.30091 1.3573,-2.56199 1.71893,-3.61156 0.48679,-1.41278 0.6999,-2.59606 0.79897,-3.3024 z" /><g
                   id="g84"
                   transform="translate(-0.05913752)"
                   style="fill:#222b00;stroke-width:0.573719"><path
                     style="display:inline;opacity:1;fill:#222b00;fill-opacity:1;stroke:none;stroke-width:0.573719;stroke-linecap:round;stroke-linejoin:round;stroke-dasharray:none;stroke-opacity:1;paint-order:markers stroke fill"
                     d="m 103.13263,142.80795 c 0,0 -3.286943,-15.82213 -6.651226,-24.45237 -3.36428,-8.63026 -1.276107,-10.3563 1.353447,-4.37266 2.629549,5.98364 5.297779,28.42229 5.297779,28.82503 z"
                     id="path83" /><path
                     style="display:inline;fill:#222b00;fill-opacity:1;stroke:none;stroke-width:0.573719;stroke-linecap:round;stroke-linejoin:round;stroke-dasharray:none;stroke-opacity:1;paint-order:markers stroke fill"
                     d="m 107.22412,142.79734 c 0,0 3.28694,-15.81717 6.65123,-24.4447 3.36427,-8.62755 1.27609,-10.35305 -1.35345,-4.37128 -2.62955,5.98176 -5.29778,28.41335 -5.29778,28.81598 z"
                     id="path84" /></g></g><g
                 id="g86"
                 style="display:inline;fill:#222b00;fill-opacity:1;stroke-width:0.573719"
                 transform="translate(-0.28260636,-25.818236)"><path
                   d="m 110.49947,141.99747 c 0,0 3.05177,1.70781 2.19169,4.16766 -0.86008,2.45984 -5.20013,3.45388 -5.20013,3.45388 0,0 2.87944,-4.47722 3.00844,-7.62154 z"
                   style="display:inline;fill:#222b00;fill-opacity:1;stroke:none;stroke-width:0.573719;stroke-linecap:butt;stroke-linejoin:miter;stroke-dasharray:none;stroke-opacity:1;paint-order:markers stroke fill"
                   id="path85" /><path
                   style="display:inline;opacity:1;fill:#222b00;fill-opacity:1;stroke:none;stroke-width:0.573719;stroke-linecap:butt;stroke-linejoin:miter;stroke-dasharray:none;stroke-opacity:1;paint-order:markers stroke fill"
                   d="m 100.30421,142.03267 c 0,0 -3.051765,1.70781 -2.191688,4.16766 0.860081,2.45984 5.200118,3.45388 5.200118,3.45388 0,0 -2.87942,-4.47722 -3.00843,-7.62154 z"
                   id="path86" /></g><g
                 id="g100"
                 transform="translate(-0.00217,-25.818236)"
                 style="fill:#222b00;fill-opacity:1;stroke:none;stroke-width:0.573719;stroke-opacity:1"><g
                   id="g93"
                   style="fill:#222b00;fill-opacity:1;stroke:none;stroke-width:0.573719;stroke-opacity:1"><g
                     id="g88"
                     transform="rotate(1.0121809,218.83215,125.50558)"
                     style="fill:#222b00;fill-opacity:1;stroke:none;stroke-width:0.573719;stroke-opacity:1"><path
                       style="opacity:1;fill:#222b00;fill-opacity:1;stroke:none;stroke-width:0.573719;stroke-linecap:butt;stroke-linejoin:miter;stroke-dasharray:none;stroke-opacity:1;paint-order:markers stroke fill"
                       d="m 94.605077,139.22044 c 0,0 -6.135026,-7.06107 -13.576432,-7.62331 0,0 -1.328872,-2.83335 -2.872354,-5.82677 0,0 8.652851,1.82411 16.276714,9.96247"
                       id="path87" /><path
                       id="path88"
                       style="opacity:1;fill:#222b00;fill-opacity:1;stroke:none;stroke-width:0.458975;stroke-linecap:butt;stroke-linejoin:miter;stroke-dasharray:none;stroke-opacity:1;paint-order:markers stroke fill"
                       d="m 74.599751,122.60795 c -0.346714,0.0231 -0.673318,0.11055 -0.98026,0.21579 -1.637028,0.56127 -4.163033,5.79981 2.80602,10.94475 6.969054,5.14493 13.866028,4.33582 13.866028,4.33582 0,0 -7.224041,-1.01525 -10.03037,-8.45203 -2.280143,-6.04238 -4.158988,-7.14453 -5.661418,-7.04433 z m -0.109257,1.59744 c 1.072058,-0.0214 3.101503,0.77004 3.778271,4.98075 0.721192,4.48709 5.504958,7.01517 5.514205,7.02005 -0.01248,-0.004 -5.011963,-1.51974 -8.365037,-5.20156 -3.357262,-3.68648 -2.124684,-6.65884 -1.128238,-6.78484 0.06228,-0.008 0.129328,-0.013 0.200799,-0.0144 z" /></g><g
                     id="g90"
                     transform="rotate(-33.989548,97.02399,137.19741)"
                     style="fill:#222b00;fill-opacity:1;stroke:none;stroke-width:0.573719;stroke-opacity:1"><path
                       style="opacity:1;fill:#222b00;fill-opacity:1;stroke:none;stroke-width:0.573719;stroke-linecap:butt;stroke-linejoin:miter;stroke-dasharray:none;stroke-opacity:1;paint-order:markers stroke fill"
                       d="m 93.946221,138.03828 c 0,0 -5.47617,-5.87891 -12.917576,-6.44115 0,0 -1.328872,-2.83335 -2.872354,-5.82677 0,0 8.652851,1.82411 16.276714,9.96247"
                       id="path89" /><path
                       id="path90"
                       style="opacity:1;fill:#222b00;fill-opacity:1;stroke:none;stroke-width:0.458975;stroke-linecap:butt;stroke-linejoin:miter;stroke-dasharray:none;stroke-opacity:1;paint-order:markers stroke fill"
                       d="m 76.50176,123.23899 c -1.104992,-0.84774 -2.063908,-0.69587 -2.88242,-0.41523 -1.637028,0.56127 -4.16274,5.79996 2.806313,10.9449 6.969054,5.14493 13.865972,4.33558 13.865972,4.33558 0,0 -7.224063,-1.01516 -10.030392,-8.45194 -1.403165,-3.71839 -2.65448,-5.56556 -3.759473,-6.41331 z m -0.413299,1.49761 c 0.880953,0.6276 1.774184,1.92337 2.180245,4.44979 0.721191,4.48709 5.505098,7.01513 5.514345,7.02001 -0.01248,-0.004 -5.011938,-1.52009 -8.365012,-5.2019 -3.357262,-3.68648 -2.124795,-6.65853 -1.128349,-6.78453 0.435946,-0.0551 1.113586,0.0285 1.798771,0.51663 z" /></g><g
                     id="g92"
                     transform="rotate(-58.776174,101.14202,138.4653)"
                     style="fill:#222b00;fill-opacity:1;stroke:none;stroke-width:0.573719;stroke-opacity:1"><path
                       style="opacity:1;fill:#222b00;fill-opacity:1;stroke:none;stroke-width:0.573719;stroke-linecap:butt;stroke-linejoin:miter;stroke-dasharray:none;stroke-opacity:1;paint-order:markers stroke fill"
                       d="m 92.995821,137.24244 c 0,0 -4.52577,-5.08307 -11.967176,-5.64531 0,0 -1.328872,-2.83335 -2.872354,-5.82677 0,0 8.766205,2.05622 16.390068,10.19458"
                       id="path91" /><path
                       id="path92"
                       style="opacity:1;fill:#222b00;fill-opacity:1;stroke:none;stroke-width:0.458975;stroke-linecap:butt;stroke-linejoin:miter;stroke-dasharray:none;stroke-opacity:1;paint-order:markers stroke fill"
                       d="m 90.291444,138.10437 c 0,0 -7.224001,-1.01508 -10.03033,-8.45186 -2.80633,-7.43677 -5.004884,-7.39001 -6.641909,-6.82874 -1.637028,0.56127 -4.162596,5.79995 2.806457,10.94489 6.969054,5.14493 13.865782,4.33571 13.865782,4.33571 z m -6.508834,-1.89796 c -0.01248,-0.004 -5.011682,-1.52001 -8.364756,-5.20183 -3.357262,-3.68648 -2.1246,-6.65863 -1.128154,-6.78463 0.996449,-0.12605 3.256889,0.47516 3.978775,4.96658 0.721192,4.48708 5.504887,7.01499 5.514135,7.01988 z" /></g></g><g
                   id="g99"
                   transform="matrix(-1,0,0,1,210.24281,0.01287296)"
                   style="fill:#222b00;fill-opacity:1;stroke:none;stroke-width:0.573719;stroke-opacity:1"><g
                     id="g94"
                     transform="rotate(1.0121809,218.83215,125.50558)"
                     style="fill:#222b00;fill-opacity:1;stroke:none;stroke-width:0.573719;stroke-opacity:1"><path
                       style="opacity:1;fill:#222b00;fill-opacity:1;stroke:none;stroke-width:0.573719;stroke-linecap:butt;stroke-linejoin:miter;stroke-dasharray:none;stroke-opacity:1;paint-order:markers stroke fill"
                       d="m 94.605077,139.22044 c 0,0 -6.135026,-7.06107 -13.576432,-7.62331 0,0 -1.328872,-2.83335 -2.872354,-5.82677 0,0 8.652851,1.82411 16.276714,9.96247"
                       id="path93" /><path
                       id="path94"
                       style="opacity:1;fill:#222b00;fill-opacity:1;stroke:none;stroke-width:0.458975;stroke-linecap:butt;stroke-linejoin:miter;stroke-dasharray:none;stroke-opacity:1;paint-order:markers stroke fill"
                       d="m 74.599651,122.608 c 1.502429,-0.1002 3.381274,1.00195 5.661417,7.04433 2.806329,7.43678 10.03037,8.45203 10.03037,8.45203 0,0 -6.896457,0.8091 -13.865511,-4.33583 -6.969053,-5.14494 -4.443565,-10.38347 -2.806537,-10.94474 0.306942,-0.10524 0.633546,-0.19266 0.980261,-0.21579 z m -0.109258,1.59743 c -0.07147,10e-4 -0.13852,0.007 -0.200799,0.0144 -0.996446,0.126 -2.229024,3.09837 1.128238,6.78485 3.353074,3.68182 8.352554,5.19777 8.365037,5.20156 -0.0092,-0.005 -4.793013,-2.53296 -5.514205,-7.02005 -0.676768,-4.21071 -2.706212,-5.00211 -3.778271,-4.98076 z" /></g><g
                     id="g96"
                     transform="rotate(-33.989548,97.02399,137.19741)"
                     style="fill:#222b00;fill-opacity:1;stroke:none;stroke-width:0.573719;stroke-opacity:1"><path
                       style="opacity:1;fill:#222b00;fill-opacity:1;stroke:none;stroke-width:0.573719;stroke-linecap:butt;stroke-linejoin:miter;stroke-dasharray:none;stroke-opacity:1;paint-order:markers stroke fill"
                       d="m 93.946221,138.03828 c 0,0 -5.47617,-5.87891 -12.917576,-6.44115 0,0 -1.328872,-2.83335 -2.872354,-5.82677 0,0 8.652851,1.82411 16.276714,9.96247"
                       id="path95" /><path
                       id="path96"
                       style="opacity:1;fill:#222b00;fill-opacity:1;stroke:none;stroke-width:0.458975;stroke-linecap:butt;stroke-linejoin:miter;stroke-dasharray:none;stroke-opacity:1;paint-order:markers stroke fill"
                       d="m 76.50165,123.23897 c 1.104993,0.84775 2.356308,2.69493 3.759473,6.41331 2.806329,7.43678 10.030392,8.45194 10.030392,8.45194 0,0 -6.896629,0.80892 -13.865683,-4.33601 -6.969053,-5.14494 -4.44363,-10.3832 -2.806602,-10.94447 0.818512,-0.28064 1.777428,-0.43251 2.88242,0.41523 z m -0.41287,1.4979 c -0.685186,-0.48813 -1.363254,-0.57207 -1.7992,-0.51692 -0.996446,0.126 -2.228913,3.09805 1.128349,6.78453 3.353074,3.68181 8.352529,5.19812 8.365012,5.2019 -0.0092,-0.005 -4.793154,-2.53292 -5.514346,-7.02001 -0.40606,-2.52642 -1.298863,-3.8219 -2.179815,-4.4495 z" /></g><g
                     id="g98"
                     transform="rotate(-58.776174,101.14202,138.4653)"
                     style="fill:#222b00;fill-opacity:1;stroke:none;stroke-width:0.573719;stroke-opacity:1"><path
                       style="opacity:1;fill:#222b00;fill-opacity:1;stroke:none;stroke-width:0.573719;stroke-linecap:butt;stroke-linejoin:miter;stroke-dasharray:none;stroke-opacity:1;paint-order:markers stroke fill"
                       d="m 92.995821,137.24244 c 0,0 -4.52577,-5.08307 -11.967176,-5.64531 0,0 -1.328872,-2.83335 -2.872354,-5.82677 0,0 8.766205,2.05622 16.390068,10.19458"
                       id="path97" /><path
                       id="path98"
                       style="opacity:1;fill:#222b00;fill-opacity:1;stroke:none;stroke-width:0.458975;stroke-linecap:butt;stroke-linejoin:miter;stroke-dasharray:none;stroke-opacity:1;paint-order:markers stroke fill"
                       d="m 90.29162,138.10475 c 0,0 -6.896996,0.80878 -13.86605,-4.33615 -6.969053,-5.14494 -4.443485,-10.38362 -2.806457,-10.94489 1.637025,-0.56127 3.835579,-0.60803 6.641909,6.82874 2.806329,7.43678 10.030598,8.4523 10.030598,8.4523 z m -6.508661,-1.89867 c -0.0092,-0.005 -4.793385,-2.53253 -5.514576,-7.01962 -0.721886,-4.49142 -2.982326,-5.09263 -3.978775,-4.96658 -0.996446,0.126 -2.22884,3.0986 1.128422,6.78508 3.353073,3.68182 8.352446,5.19733 8.364929,5.20112 z" /></g></g></g></g></g><g
             id="g128"
             transform="translate(0.06080434,-0.99506411)"
             style="display:inline;stroke-width:0.573719"><g
               id="g104"
               transform="translate(0.54537741,-10.186286)"
               style="stroke-width:0.573719"><path
                 id="path102"
                 style="opacity:1;fill:#ffffff;fill-opacity:1;stroke:none;stroke-width:0.689003;stroke-linecap:round;stroke-linejoin:round;stroke-opacity:1;paint-order:markers stroke fill"
                 d="m 112.00714,150.70209 -2.89285,3.59874 c 4.79782,-0.67134 8.84649,-1.17564 8.84649,-1.17564 l -1.12086,-2.07842 c -1.71075,-0.15529 -3.32056,-0.26797 -4.83278,-0.34468 z m -14.301973,0.45733 c -4.00532,0.57515 -5.720581,1.36426 -5.720581,1.36426 -2.515625,3.66406 -3.281453,10.22625 -3.281453,10.22625 2.838019,0.29275 5.496566,0.69891 8.012431,0.66611 14.403556,-0.18798 23.268866,-5.20485 23.268866,-5.20485 l -0.76585,-2.1332 c -7.60156,3.66407 -26.030966,3.60959 -26.030966,3.60959 l 1.531172,-2.9533 c 1.392235,-0.3797 3.924116,-0.84188 6.819734,-1.3069 z" /><path
                 id="path103"
                 style="opacity:1;fill:#ffffff;fill-opacity:1;stroke:none;stroke-width:1.43429;stroke-linecap:butt;stroke-linejoin:miter;stroke-dasharray:none;stroke-opacity:1;paint-order:markers stroke fill"
                 d="m 120.49551,178.77117 c 0,0 -9.9385,7.73366 -27.80399,5.56814 0,0 4.567696,9.04696 10.05003,11.24272 l 2.60088,15.88276 3.64784,-16.59951 c 4.74633,-2.77 8.33437,-9.40459 8.33437,-9.40459 l -11.60342,6.47919 c 0,0 -6.154184,-3.49487 -6.162419,-3.54139 0,0 12.584019,-1.58399 20.936709,-9.62732 z" /><path
                 style="opacity:1;fill:#be3d2a;fill-opacity:1;stroke:none;stroke-width:1.43429;stroke-linecap:butt;stroke-linejoin:miter;stroke-dasharray:none;stroke-opacity:1;paint-order:markers stroke fill"
                 d="m 120.84999,159.34382 c -1.86616,0.87527 -16.65578,7.47941 -32.188284,4.58432 0,0 -1.271081,7.29837 0.697669,12.93119 0,0 18.429695,1.64062 27.781255,-5.14063 0,0 -1.03907,4.10156 -1.96875,4.92188 0,0 -9.16016,4.40234 -24.964848,2.51562 0,0 0.300781,2.07813 1.722656,3.99219 0,0 18.611372,2.14722 28.546872,-5.96094 0,0 1.71797,-5.71035 1.09375,-11.32031 0,0 -9.67968,6.15088 -27.00624,7.14047 0,0 0.138545,-3.55311 0.14101,-3.57211 0,0 11.3869,-0.31651 21.5719,-6.69398 1.56815,-0.98192 3.1078,-2.10751 4.57301,-3.39775 z"
                 id="path104" /></g><g
               id="g127"
               style="display:inline;stroke-width:0.573719"
               transform="translate(0.40859234,15.631938)"><g
                 id="g106"
                 style="display:inline;fill:#be3d2a;fill-opacity:1;stroke-width:0.573719"
                 transform="translate(0,-25.818236)"><path
                   style="opacity:1;fill:#be3d2a;fill-opacity:1;fill-rule:nonzero;stroke:none;stroke-width:0.458975;stroke-linecap:butt;stroke-linejoin:miter;stroke-dasharray:none;stroke-opacity:1;paint-order:markers stroke fill"
                   d="m 96.799599,130.28564 v 0 c -0.126811,0.15406 -0.700287,0.71951 -2.393274,-0.27924 -1.119634,-0.6605 -3.244985,-2.24957 -6.777083,-5.20973 -2.039412,-1.70918 -4.609587,-3.93254 -7.247827,-6.33156 -2.281736,-2.07483 -4.7074,-4.36633 -6.76997,-6.49245 -3.583309,-3.69501 -8.442599,-8.48816 -13.14964,-12.659651 -2.217822,-1.965486 -4.373061,-3.766443 -6.289487,-5.20266 -0.946236,-0.709132 -1.822639,-1.320597 -2.611764,-1.816405 -0.79264,-0.498015 -1.46746,-0.860505 -2.020501,-1.092419 -1.266666,-0.523963 -2.257661,-0.832971 -3.049222,-0.955345 -0.394883,-0.06105 -0.7236,-0.07286 -0.999821,-0.04809 -0.276873,0.02482 -0.509261,0.08701 -0.710751,0.182484 -0.206649,0.09792 -0.403717,0.241688 -0.592837,0.451746 -0.19622,0.217946 -0.382844,0.506428 -0.554376,0.879705 -0.177254,0.385731 -0.331821,0.847687 -0.4635,1.387684 -0.120485,0.49409 -0.219676,1.044682 -0.300002,1.647816 -0.01093,0.08209 -0.02161,0.165595 -0.03202,0.250531 -0.167237,1.36327 -0.254845,3.084443 -0.147934,5.101419 0.100259,1.89148 0.372997,4.06403 0.923297,6.43947 1.049802,4.53161 3.114818,9.82026 6.92858,15.25151 1.863617,2.65432 3.921487,4.66909 6.030183,6.20318 2.136509,1.55431 4.323033,2.61348 6.403836,3.34188 2.14508,0.75091 4.191384,1.15479 5.965964,1.38029 1.860246,0.23638 3.497523,0.28497 4.678866,0.30736 0.648417,0.0121 1.424549,0.0367 2.270815,0.0713 0.89562,0.0367 1.863327,0.0845 2.855558,0.1412 2.265959,0.12953 4.509359,0.29657 6.50108,0.48341 2.686114,0.25196 4.601257,0.5093 5.933739,0.74149 0.29975,0.0522 0.564383,0.10219 0.79813,0.14938 0.569682,0.11499 1.006175,0.22454 1.344513,0.3247 0.332846,0.0985 0.574961,0.18924 0.754335,0.26815 0.269433,0.11854 0.413867,0.21808 0.495815,0.28238 -0.0926,-0.0493 -0.249927,-0.11591 -0.527246,-0.19574 -0.184305,-0.053 -0.43115,-0.11472 -0.765831,-0.18355 -0.340178,-0.07 -0.77861,-0.14889 -1.347665,-0.23497 -0.233682,-0.0354 -0.498192,-0.0731 -0.797672,-0.11272 -1.326408,-0.17547 -3.249014,-0.37499 -5.927126,-0.55821 -1.97981,-0.13544 -4.239357,-0.25193 -6.490747,-0.32519 -0.988991,-0.0322 -1.955667,-0.0552 -2.846114,-0.0667 -0.842333,-0.0108 -1.612833,-0.0112 -2.251583,9.6e-4 -1.194363,0.0224 -2.864913,0.0222 -4.784122,-0.17426 -1.828031,-0.18711 -3.955219,-0.55868 -6.200737,-1.29655 -2.179288,-0.71612 -4.487465,-1.78279 -6.755052,-3.37812 -2.239735,-1.57574 -4.42723,-3.65835 -6.409366,-6.40794 -3.987533,-5.53087 -6.202516,-10.95691 -7.36883,-15.6504 -0.610881,-2.45831 -0.934886,-4.71812 -1.076896,-6.69824 -0.151341,-2.110246 -0.09842,-3.932494 0.04644,-5.400209 0.009,-0.09095 0.01826,-0.180643 0.02788,-0.269093 0.07037,-0.647564 0.159558,-1.261052 0.273955,-1.830979 0.124544,-0.620476 0.28129,-1.201309 0.482985,-1.728432 0.195218,-0.510196 0.437559,-0.983448 0.745432,-1.400579 0.302129,-0.409348 0.665204,-0.761553 1.100984,-1.03916 0.427217,-0.272153 0.901748,-0.458201 1.417775,-0.565507 0.505033,-0.105019 1.04143,-0.132992 1.604101,-0.09963 1.102327,0.06536 2.350317,0.369225 3.747587,0.845117 0.771161,0.265368 1.619449,0.673677 2.515142,1.180828 0.901893,0.510662 1.874718,1.134669 2.894353,1.842799 2.063097,1.432807 4.345335,3.229267 6.654427,5.169832 4.895402,4.114102 9.933167,8.890292 13.606351,12.574982 2.022438,2.02804 4.413656,4.26047 6.66646,6.31654 2.519971,2.29989 5.203527,4.68346 7.092167,6.3701 3.486523,3.11362 5.283649,4.76321 6.19143,5.81825 1.273366,1.47994 0.837208,2.13876 0.706823,2.29717 z"
                   id="path105" /><path
                   style="fill:#be3d2a;fill-opacity:1;fill-rule:nonzero;stroke:none;stroke-width:0.458975;stroke-linecap:butt;stroke-linejoin:miter;stroke-dasharray:none;stroke-opacity:1;paint-order:markers stroke fill"
                   d="m 96.799599,130.28564 v 0 c -0.126811,0.15406 -0.700287,0.71951 -2.393274,-0.27924 -1.119634,-0.6605 -3.244985,-2.24957 -6.777083,-5.20973 -2.039412,-1.70918 -4.609587,-3.93254 -7.247827,-6.33156 -2.281736,-2.07483 -4.7074,-4.36633 -6.76997,-6.49245 -3.583309,-3.69501 -8.442599,-8.48816 -13.14964,-12.659651 -2.217822,-1.965486 -4.373061,-3.766443 -6.289487,-5.20266 -0.946236,-0.709132 -1.822639,-1.320597 -2.611764,-1.816405 -0.79264,-0.498015 -1.46746,-0.860505 -2.020501,-1.092419 -1.266666,-0.523963 -2.257661,-0.832971 -3.049222,-0.955345 -0.394883,-0.06105 -0.7236,-0.07286 -0.999821,-0.04809 -0.276873,0.02482 -0.509261,0.08701 -0.710751,0.182484 -0.206649,0.09792 -0.403717,0.241688 -0.592837,0.451746 -0.19622,0.217946 -0.382844,0.506428 -0.554376,0.879705 -0.177254,0.385731 -0.331821,0.847687 -0.4635,1.387684 -0.120485,0.49409 -0.219676,1.044682 -0.300002,1.647816 -0.01093,0.08209 -0.02161,0.165595 -0.03202,0.250531 -0.167237,1.36327 -0.254845,3.084443 -0.147934,5.101419 0.100259,1.89148 0.372997,4.06403 0.923297,6.43947 1.049802,4.53161 3.114818,9.82026 6.92858,15.25151 1.863617,2.65432 3.921487,4.66909 6.030183,6.20318 2.136509,1.55431 4.323033,2.61348 6.403836,3.34188 2.14508,0.75091 4.191384,1.15479 5.965964,1.38029 1.860246,0.23638 3.497523,0.28497 4.678866,0.30736 0.648417,0.0121 1.424549,0.0367 2.270815,0.0713 0.89562,0.0367 1.863327,0.0845 2.855558,0.1412 2.265959,0.12953 4.509359,0.29657 6.50108,0.48341 2.686114,0.25196 4.601257,0.5093 5.933739,0.74149 0.29975,0.0522 0.564383,0.10219 0.79813,0.14938 0.569682,0.11499 1.006175,0.22454 1.344513,0.3247 0.332846,0.0985 0.574961,0.18924 0.754335,0.26815 0.269433,0.11854 0.413867,0.21808 0.495815,0.28238 -0.0926,-0.0493 -0.249927,-0.11591 -0.527246,-0.19574 -0.184305,-0.053 -0.43115,-0.11472 -0.765831,-0.18355 -0.340178,-0.07 -0.77861,-0.14889 -1.347665,-0.23497 -0.233682,-0.0354 -0.498192,-0.0731 -0.797672,-0.11272 -1.326408,-0.17547 -3.249014,-0.37499 -5.927126,-0.55821 -1.97981,-0.13544 -4.239357,-0.25193 -6.490747,-0.32519 -0.988991,-0.0322 -1.955667,-0.0552 -2.846114,-0.0667 -0.842333,-0.0108 -1.612833,-0.0112 -2.251583,9.6e-4 -1.194363,0.0224 -2.864913,0.0222 -4.784122,-0.17426 -1.828031,-0.18711 -3.955219,-0.55868 -6.200737,-1.29655 -2.179288,-0.71612 -4.487465,-1.78279 -6.755052,-3.37812 -2.239735,-1.57574 -4.42723,-3.65835 -6.409366,-6.40794 -3.987533,-5.53087 -6.202516,-10.95691 -7.36883,-15.6504 -0.610881,-2.45831 -0.934886,-4.71812 -1.076896,-6.69824 -0.151341,-2.110246 -0.09842,-3.932494 0.04644,-5.400209 0.009,-0.09095 0.01826,-0.180643 0.02788,-0.269093 0.07037,-0.647564 0.159558,-1.261052 0.273955,-1.830979 0.124544,-0.620476 0.28129,-1.201309 0.482985,-1.728432 0.195218,-0.510196 0.437559,-0.983448 0.745432,-1.400579 0.302129,-0.409348 0.665204,-0.761553 1.100984,-1.03916 0.427217,-0.272153 0.901748,-0.458201 1.417775,-0.565507 0.505033,-0.105019 1.04143,-0.132992 1.604101,-0.09963 1.102327,0.06536 2.350317,0.369225 3.747587,0.845117 0.771161,0.265368 1.619449,0.673677 2.515142,1.180828 0.901893,0.510662 1.874718,1.134669 2.894353,1.842799 2.063097,1.432807 4.345335,3.229267 6.654427,5.169832 4.895402,4.114102 9.933167,8.890292 13.606351,12.574982 2.022438,2.02804 4.413656,4.26047 6.66646,6.31654 2.519971,2.29989 5.203527,4.68346 7.092167,6.3701 3.486523,3.11362 5.283649,4.76321 6.19143,5.81825 1.273366,1.47994 0.837208,2.13876 0.706823,2.29717 z"
                   id="path106"
                   transform="matrix(-1,0,0,1,210.23847,0.00320054)" /></g><g
                 id="g111"
                 transform="translate(0,-25.818236)"
                 style="stroke-width:0.573719"><path
                   id="path107"
                   style="display:inline;opacity:1;fill:#ffffff;fill-opacity:1;fill-rule:nonzero;stroke:none;stroke-width:0.573719;stroke-linecap:round;stroke-linejoin:round;paint-order:markers stroke fill"
                   d="m 95.875082,142.2589 c -0.03681,-0.21274 -0.01726,-0.67767 -0.120166,-1.2428 -0.0749,-0.41133 -0.187371,-0.93493 -0.262973,-1.62097 -0.08694,-0.78892 -0.112272,-1.68487 -0.01608,-2.78576 0.04239,-1.31892 0.344165,-2.57722 0.867679,-3.72556 0.517037,-1.13414 1.241649,-2.1417 2.115287,-2.97967 0.897182,-0.86055 1.932873,-1.52497 3.038203,-1.97691 1.17183,-0.47912 2.39487,-0.70946 3.61234,-0.71629 0.0182,-10e-5 0.0364,-1.6e-4 0.0547,-1.6e-4 1.236,-1.7e-4 2.47811,0.22973 3.66732,0.71578 1.10578,0.45195 2.14157,1.11645 3.03866,1.97684 0.87392,0.83817 1.59857,1.84589 2.11557,2.97997 0.52363,1.14863 0.82534,2.4071 0.86766,3.726 0.18437,2.09999 -0.24628,3.67181 -0.4584,4.638 -0.13068,0.59526 -0.12273,1.06863 -0.1644,1.28446 0.17125,-0.11776 0.63534,-0.32872 1.05758,-0.83476 0.64795,-0.77654 1.66198,-2.5519 1.84306,-5.0877 0.0424,-1.62485 -0.24383,-3.21828 -0.8342,-4.70359 -0.58212,-1.46458 -1.44604,-2.78845 -2.52554,-3.90371 -1.10794,-1.14465 -2.41899,-2.04534 -3.84504,-2.66427 -1.53582,-0.66658 -3.155,-0.98591 -4.76227,-0.98608 -0.0237,0 -0.0473,6e-5 -0.0709,2e-4 -1.58357,0.009 -3.178,0.32843 -4.69164,0.9852 -1.425811,0.61866 -2.737116,1.5192 -3.845483,2.66421 -1.079448,1.11512 -1.943557,2.43905 -2.525825,3.90401 -0.590344,1.48528 -0.876651,3.07885 -0.834179,4.70403 0.09626,1.28752 0.363543,2.34492 0.720012,3.20871 0.304284,0.73733 0.65515,1.28568 0.936757,1.62947 0.398895,0.48699 0.854371,0.69474 1.0223,0.81135 z"
                   transform="translate(-0.04431964)" /><path
                   id="path108"
                   style="display:inline;opacity:1;fill:#ffffff;fill-opacity:1;fill-rule:nonzero;stroke:none;stroke-width:1.43429;stroke-linecap:butt;stroke-linejoin:miter;stroke-dasharray:none;stroke-opacity:1;paint-order:markers stroke fill"
                   d="m 113.20994,144.70665 c -0.0861,0.61355 -0.27352,1.6582 -0.70463,2.9094 -0.32052,0.93024 -0.79843,2.0404 -1.51255,3.17973 -0.62382,0.99527 -1.44065,2.03311 -2.51114,2.99229 -0.90685,0.81256 -2.00239,1.57469 -3.32805,2.20707 v 0 c -1.35198,-0.58464 -2.52092,-1.40352 -3.52348,-2.35848 -1.0995,-1.0473 -1.978258,-2.23887 -2.660629,-3.41032 -0.700996,-1.20342 -1.185861,-2.37091 -1.491277,-3.3159 -0.160076,-0.4953 -0.270591,-0.92788 -0.340668,-1.27921 -0.03622,-0.18157 -0.06112,-0.3388 -0.07688,-0.47072 -0.01637,-0.13697 -0.02191,-0.23862 -0.02191,-0.3078 -10e-7,-0.9199 0.199273,-1.84254 0.616367,-2.72281 0.389053,-0.8211 0.962256,-1.5921 1.707065,-2.25696 1.457982,-1.3015 3.491102,-2.12055 5.757082,-2.12055 2.42894,0 4.42265,0.92935 5.75708,2.12054 0.79488,0.70957 1.34681,1.49666 1.70706,2.25697 0.49228,1.03894 0.61637,1.998 0.61637,2.72281 z m 2.09293,0.14606 c 0,-0.96798 -0.16683,-2.24711 -0.81892,-3.62335 -0.47601,-1.00462 -1.19472,-2.02167 -2.20708,-2.92537 -1.69767,-1.51545 -4.18312,-2.65472 -7.15763,-2.65472 -2.77187,0 -5.306309,1.00211 -7.157629,2.65471 -0.947497,0.8458 -1.693758,1.84199 -2.207093,2.92538 -0.551763,1.1645 -0.81892,2.39503 -0.818919,3.62335 0,0.1723 0.01316,0.35974 0.03677,0.55731 0.02314,0.19368 0.05733,0.40537 0.102655,0.6326 0.08755,0.43893 0.219573,0.95026 0.401961,1.51459 0.347495,1.0752 0.89049,2.38059 1.675188,3.72771 0.762818,1.30955 1.758995,2.66642 3.027377,3.87458 1.27403,1.21354 2.80494,2.25989 4.61818,2.96221 0.26009,0.10075 0.54954,0.094 0.80468,-0.0187 1.71905,-0.75932 3.12901,-1.71492 4.28268,-2.74863 1.23698,-1.10837 2.17654,-2.30391 2.88969,-3.44168 0.81539,-1.30091 1.3573,-2.56199 1.71893,-3.61156 0.48679,-1.41278 0.6999,-2.59606 0.79897,-3.3024 z" /><g
                   id="g110"
                   transform="translate(-0.05913752)"
                   style="stroke-width:0.573719"><path
                     style="display:inline;opacity:1;fill:#ffffff;fill-opacity:1;stroke:none;stroke-width:0.573719;stroke-linecap:round;stroke-linejoin:round;stroke-dasharray:none;stroke-opacity:1;paint-order:markers stroke fill"
                     d="m 103.13263,142.80795 c 0,0 -3.286943,-15.82213 -6.651226,-24.45237 -3.36428,-8.63026 -1.276107,-10.3563 1.353447,-4.37266 2.629549,5.98364 5.297779,28.42229 5.297779,28.82503 z"
                     id="path109" /><path
                     style="display:inline;fill:#ffffff;fill-opacity:1;stroke:none;stroke-width:0.573719;stroke-linecap:round;stroke-linejoin:round;stroke-dasharray:none;stroke-opacity:1;paint-order:markers stroke fill"
                     d="m 107.22412,142.79734 c 0,0 3.28694,-15.81717 6.65123,-24.4447 3.36427,-8.62755 1.27609,-10.35305 -1.35345,-4.37128 -2.62955,5.98176 -5.29778,28.41335 -5.29778,28.81598 z"
                     id="path110" /></g></g><g
                 id="g112"
                 style="display:inline;fill:#be3d2a;fill-opacity:1;stroke-width:0.573719"
                 transform="translate(-0.28260636,-25.818236)"><path
                   d="m 110.49947,141.99747 c 0,0 3.05177,1.70781 2.19169,4.16766 -0.86008,2.45984 -5.20013,3.45388 -5.20013,3.45388 0,0 2.87944,-4.47722 3.00844,-7.62154 z"
                   style="display:inline;fill:#be3d2a;fill-opacity:1;stroke:none;stroke-width:0.573719;stroke-linecap:butt;stroke-linejoin:miter;stroke-dasharray:none;stroke-opacity:1;paint-order:markers stroke fill"
                   id="path111" /><path
                   style="display:inline;opacity:1;fill:#be3d2a;fill-opacity:1;stroke:none;stroke-width:0.573719;stroke-linecap:butt;stroke-linejoin:miter;stroke-dasharray:none;stroke-opacity:1;paint-order:markers stroke fill"
                   d="m 100.30421,142.03267 c 0,0 -3.051765,1.70781 -2.191688,4.16766 0.860081,2.45984 5.200118,3.45388 5.200118,3.45388 0,0 -2.87942,-4.47722 -3.00843,-7.62154 z"
                   id="path112" /></g><g
                 id="g126"
                 transform="translate(-0.00217,-25.818236)"
                 style="fill:#ffffff;fill-opacity:1;stroke:none;stroke-width:0.573719;stroke-opacity:1"><g
                   id="g119"
                   style="fill:#ffffff;fill-opacity:1;stroke:none;stroke-width:0.573719;stroke-opacity:1"><g
                     id="g114"
                     transform="rotate(1.0121809,218.83215,125.50558)"
                     style="fill:#ffffff;fill-opacity:1;stroke:none;stroke-width:0.573719;stroke-opacity:1"><path
                       style="opacity:1;fill:#ffffff;fill-opacity:1;stroke:none;stroke-width:0.573719;stroke-linecap:butt;stroke-linejoin:miter;stroke-dasharray:none;stroke-opacity:1;paint-order:markers stroke fill"
                       d="m 94.605077,139.22044 c 0,0 -6.135026,-7.06107 -13.576432,-7.62331 0,0 -1.328872,-2.83335 -2.872354,-5.82677 0,0 8.652851,1.82411 16.276714,9.96247"
                       id="path113" /><path
                       id="path114"
                       style="opacity:1;fill:#ffffff;fill-opacity:1;stroke:none;stroke-width:0.458975;stroke-linecap:butt;stroke-linejoin:miter;stroke-dasharray:none;stroke-opacity:1;paint-order:markers stroke fill"
                       d="m 74.599751,122.60795 c -0.346714,0.0231 -0.673318,0.11055 -0.98026,0.21579 -1.637028,0.56127 -4.163033,5.79981 2.80602,10.94475 6.969054,5.14493 13.866028,4.33582 13.866028,4.33582 0,0 -7.224041,-1.01525 -10.03037,-8.45203 -2.280143,-6.04238 -4.158988,-7.14453 -5.661418,-7.04433 z m -0.109257,1.59744 c 1.072058,-0.0214 3.101503,0.77004 3.778271,4.98075 0.721192,4.48709 5.504958,7.01517 5.514205,7.02005 -0.01248,-0.004 -5.011963,-1.51974 -8.365037,-5.20156 -3.357262,-3.68648 -2.124684,-6.65884 -1.128238,-6.78484 0.06228,-0.008 0.129328,-0.013 0.200799,-0.0144 z" /></g><g
                     id="g116"
                     transform="rotate(-33.989548,97.02399,137.19741)"
                     style="fill:#ffffff;fill-opacity:1;stroke:none;stroke-width:0.573719;stroke-opacity:1"><path
                       style="opacity:1;fill:#ffffff;fill-opacity:1;stroke:none;stroke-width:0.573719;stroke-linecap:butt;stroke-linejoin:miter;stroke-dasharray:none;stroke-opacity:1;paint-order:markers stroke fill"
                       d="m 93.946221,138.03828 c 0,0 -5.47617,-5.87891 -12.917576,-6.44115 0,0 -1.328872,-2.83335 -2.872354,-5.82677 0,0 8.652851,1.82411 16.276714,9.96247"
                       id="path115" /><path
                       id="path116"
                       style="opacity:1;fill:#ffffff;fill-opacity:1;stroke:none;stroke-width:0.458975;stroke-linecap:butt;stroke-linejoin:miter;stroke-dasharray:none;stroke-opacity:1;paint-order:markers stroke fill"
                       d="m 76.50176,123.23899 c -1.104992,-0.84774 -2.063908,-0.69587 -2.88242,-0.41523 -1.637028,0.56127 -4.16274,5.79996 2.806313,10.9449 6.969054,5.14493 13.865972,4.33558 13.865972,4.33558 0,0 -7.224063,-1.01516 -10.030392,-8.45194 -1.403165,-3.71839 -2.65448,-5.56556 -3.759473,-6.41331 z m -0.413299,1.49761 c 0.880953,0.6276 1.774184,1.92337 2.180245,4.44979 0.721191,4.48709 5.505098,7.01513 5.514345,7.02001 -0.01248,-0.004 -5.011938,-1.52009 -8.365012,-5.2019 -3.357262,-3.68648 -2.124795,-6.65853 -1.128349,-6.78453 0.435946,-0.0551 1.113586,0.0285 1.798771,0.51663 z" /></g><g
                     id="g118"
                     transform="rotate(-58.776174,101.14202,138.4653)"
                     style="fill:#ffffff;fill-opacity:1;stroke:none;stroke-width:0.573719;stroke-opacity:1"><path
                       style="opacity:1;fill:#ffffff;fill-opacity:1;stroke:none;stroke-width:0.573719;stroke-linecap:butt;stroke-linejoin:miter;stroke-dasharray:none;stroke-opacity:1;paint-order:markers stroke fill"
                       d="m 92.995821,137.24244 c 0,0 -4.52577,-5.08307 -11.967176,-5.64531 0,0 -1.328872,-2.83335 -2.872354,-5.82677 0,0 8.766205,2.05622 16.390068,10.19458"
                       id="path117" /><path
                       id="path118"
                       style="opacity:1;fill:#ffffff;fill-opacity:1;stroke:none;stroke-width:0.458975;stroke-linecap:butt;stroke-linejoin:miter;stroke-dasharray:none;stroke-opacity:1;paint-order:markers stroke fill"
                       d="m 90.291444,138.10437 c 0,0 -7.224001,-1.01508 -10.03033,-8.45186 -2.80633,-7.43677 -5.004884,-7.39001 -6.641909,-6.82874 -1.637028,0.56127 -4.162596,5.79995 2.806457,10.94489 6.969054,5.14493 13.865782,4.33571 13.865782,4.33571 z m -6.508834,-1.89796 c -0.01248,-0.004 -5.011682,-1.52001 -8.364756,-5.20183 -3.357262,-3.68648 -2.1246,-6.65863 -1.128154,-6.78463 0.996449,-0.12605 3.256889,0.47516 3.978775,4.96658 0.721192,4.48708 5.504887,7.01499 5.514135,7.01988 z" /></g></g><g
                   id="g125"
                   transform="matrix(-1,0,0,1,210.24281,0.01287296)"
                   style="fill:#ffffff;fill-opacity:1;stroke:none;stroke-width:0.573719;stroke-opacity:1"><g
                     id="g120"
                     transform="rotate(1.0121809,218.83215,125.50558)"
                     style="fill:#ffffff;fill-opacity:1;stroke:none;stroke-width:0.573719;stroke-opacity:1"><path
                       style="opacity:1;fill:#ffffff;fill-opacity:1;stroke:none;stroke-width:0.573719;stroke-linecap:butt;stroke-linejoin:miter;stroke-dasharray:none;stroke-opacity:1;paint-order:markers stroke fill"
                       d="m 94.605077,139.22044 c 0,0 -6.135026,-7.06107 -13.576432,-7.62331 0,0 -1.328872,-2.83335 -2.872354,-5.82677 0,0 8.652851,1.82411 16.276714,9.96247"
                       id="path119" /><path
                       id="path120"
                       style="opacity:1;fill:#ffffff;fill-opacity:1;stroke:none;stroke-width:0.458975;stroke-linecap:butt;stroke-linejoin:miter;stroke-dasharray:none;stroke-opacity:1;paint-order:markers stroke fill"
                       d="m 74.599651,122.608 c 1.502429,-0.1002 3.381274,1.00195 5.661417,7.04433 2.806329,7.43678 10.03037,8.45203 10.03037,8.45203 0,0 -6.896457,0.8091 -13.865511,-4.33583 -6.969053,-5.14494 -4.443565,-10.38347 -2.806537,-10.94474 0.306942,-0.10524 0.633546,-0.19266 0.980261,-0.21579 z m -0.109258,1.59743 c -0.07147,10e-4 -0.13852,0.007 -0.200799,0.0144 -0.996446,0.126 -2.229024,3.09837 1.128238,6.78485 3.353074,3.68182 8.352554,5.19777 8.365037,5.20156 -0.0092,-0.005 -4.793013,-2.53296 -5.514205,-7.02005 -0.676768,-4.21071 -2.706212,-5.00211 -3.778271,-4.98076 z" /></g><g
                     id="g122"
                     transform="rotate(-33.989548,97.02399,137.19741)"
                     style="fill:#ffffff;fill-opacity:1;stroke:none;stroke-width:0.573719;stroke-opacity:1"><path
                       style="opacity:1;fill:#ffffff;fill-opacity:1;stroke:none;stroke-width:0.573719;stroke-linecap:butt;stroke-linejoin:miter;stroke-dasharray:none;stroke-opacity:1;paint-order:markers stroke fill"
                       d="m 93.946221,138.03828 c 0,0 -5.47617,-5.87891 -12.917576,-6.44115 0,0 -1.328872,-2.83335 -2.872354,-5.82677 0,0 8.652851,1.82411 16.276714,9.96247"
                       id="path121" /><path
                       id="path122"
                       style="opacity:1;fill:#ffffff;fill-opacity:1;stroke:none;stroke-width:0.458975;stroke-linecap:butt;stroke-linejoin:miter;stroke-dasharray:none;stroke-opacity:1;paint-order:markers stroke fill"
                       d="m 76.50165,123.23897 c 1.104993,0.84775 2.356308,2.69493 3.759473,6.41331 2.806329,7.43678 10.030392,8.45194 10.030392,8.45194 0,0 -6.896629,0.80892 -13.865683,-4.33601 -6.969053,-5.14494 -4.44363,-10.3832 -2.806602,-10.94447 0.818512,-0.28064 1.777428,-0.43251 2.88242,0.41523 z m -0.41287,1.4979 c -0.685186,-0.48813 -1.363254,-0.57207 -1.7992,-0.51692 -0.996446,0.126 -2.228913,3.09805 1.128349,6.78453 3.353074,3.68181 8.352529,5.19812 8.365012,5.2019 -0.0092,-0.005 -4.793154,-2.53292 -5.514346,-7.02001 -0.40606,-2.52642 -1.298863,-3.8219 -2.179815,-4.4495 z" /></g><g
                     id="g124"
                     transform="rotate(-58.776174,101.14202,138.4653)"
                     style="fill:#ffffff;fill-opacity:1;stroke:none;stroke-width:0.573719;stroke-opacity:1"><path
                       style="opacity:1;fill:#ffffff;fill-opacity:1;stroke:none;stroke-width:0.573719;stroke-linecap:butt;stroke-linejoin:miter;stroke-dasharray:none;stroke-opacity:1;paint-order:markers stroke fill"
                       d="m 92.995821,137.24244 c 0,0 -4.52577,-5.08307 -11.967176,-5.64531 0,0 -1.328872,-2.83335 -2.872354,-5.82677 0,0 8.766205,2.05622 16.390068,10.19458"
                       id="path123" /><path
                       id="path124"
                       style="opacity:1;fill:#ffffff;fill-opacity:1;stroke:none;stroke-width:0.458975;stroke-linecap:butt;stroke-linejoin:miter;stroke-dasharray:none;stroke-opacity:1;paint-order:markers stroke fill"
                       d="m 90.29162,138.10475 c 0,0 -6.896996,0.80878 -13.86605,-4.33615 -6.969053,-5.14494 -4.443485,-10.38362 -2.806457,-10.94489 1.637025,-0.56127 3.835579,-0.60803 6.641909,6.82874 2.806329,7.43678 10.030598,8.4523 10.030598,8.4523 z m -6.508661,-1.89867 c -0.0092,-0.005 -4.793385,-2.53253 -5.514576,-7.01962 -0.721886,-4.49142 -2.982326,-5.09263 -3.978775,-4.96658 -0.996446,0.126 -2.22884,3.0986 1.128422,6.78508 3.353073,3.68182 8.352446,5.19733 8.364929,5.20112 z" /></g></g></g></g></g></g></g></g></g></svg>
